<?xml version="1.0" encoding="UTF-8"?>
<!DOCTYPE svg PUBLIC "-//W3C//DTD SVG 1.1//EN" "http://www.w3.org/Graphics/SVG/1.1/DTD/svg11.dtd">
<svg xmlns="http://www.w3.org/2000/svg" version="1.1" width="1563px" height="1705px" style="shape-rendering:geometricPrecision; text-rendering:geometricPrecision; image-rendering:optimizeQuality; fill-rule:evenodd; clip-rule:evenodd" xmlns:xlink="http://www.w3.org/1999/xlink">
<g><path style="opacity:1" fill="#f8dabc" d="M 35.5,-0.5 C 253.5,-0.5 471.5,-0.5 689.5,-0.5C 726.481,48.4756 763.815,97.1422 801.5,145.5C 835.481,190.808 869.814,235.808 904.5,280.5C 937.693,324.899 971.36,368.899 1005.5,412.5C 1052.48,474.808 1099.81,536.808 1147.5,598.5C 1180.78,643.412 1214.78,687.746 1249.5,731.5C 1281.11,774.382 1313.44,816.715 1346.5,858.5C 1372.02,892.869 1398.02,926.869 1424.5,960.5C 1457.21,1004.72 1490.54,1048.56 1524.5,1092C 1438.64,1158.02 1352.64,1223.86 1266.5,1289.5C 1213.48,1220.81 1160.48,1152.15 1107.5,1083.5C 1077.54,1043.54 1047.21,1003.88 1016.5,964.5C 992.649,932.132 968.316,900.132 943.5,868.5C 941.183,864.854 938.516,861.52 935.5,858.5C 916.185,832.525 896.519,806.858 876.5,781.5C 870.406,775.074 865.073,768.074 860.5,760.5C 859.864,758.205 858.531,756.539 856.5,755.5C 852.738,752.071 849.738,748.071 847.5,743.5C 846.864,741.205 845.531,739.539 843.5,738.5C 835.441,729.381 828.108,719.714 821.5,709.5C 820.864,707.205 819.531,705.539 817.5,704.5C 793.457,673.79 769.79,642.79 746.5,611.5C 745.864,609.205 744.531,607.539 742.5,606.5C 738.738,603.071 735.738,599.071 733.5,594.5C 732.864,592.205 731.531,590.539 729.5,589.5C 725.738,586.071 722.738,582.071 720.5,577.5C 719.864,575.205 718.531,573.539 716.5,572.5C 712.738,569.071 709.738,565.071 707.5,560.5C 706.864,558.205 705.531,556.539 703.5,555.5C 699.738,552.071 696.738,548.071 694.5,543.5C 693.864,541.205 692.531,539.539 690.5,538.5C 686.738,535.071 683.738,531.071 681.5,526.5C 662.21,500.543 642.543,474.877 622.5,449.5C 588.316,403.798 553.649,358.465 518.5,313.5C 469.24,248.395 419.74,183.395 370,118.5C 362.968,109.975 355.802,101.641 348.5,93.5C 403.074,166.408 458.407,238.741 514.5,310.5C 548.926,356.355 583.593,402.022 618.5,447.5C 637.603,472.719 656.936,497.719 676.5,522.5C 676.489,524.017 675.823,525.184 674.5,526C 589.063,590.803 503.897,655.97 419,721.5C 404.055,701.916 388.888,682.583 373.5,663.5C 338.593,616.259 302.926,569.592 266.5,523.5C 236.891,483.285 206.558,443.618 175.5,404.5C 130.261,344.38 84.7607,284.38 39,224.5C 38.1841,223.177 37.0174,222.511 35.5,222.5C 35.5,148.167 35.5,73.8333 35.5,-0.5 Z"/></g>
<g><path style="opacity:1" fill="#f8dabc" d="M 692.5,-0.5 C 829.167,-0.5 965.833,-0.5 1102.5,-0.5C 1126.76,32.76 1151.76,65.4267 1177.5,97.5C 1197.07,124.741 1217.41,151.407 1238.5,177.5C 1267.81,216.808 1297.48,255.808 1327.5,294.5C 1353.95,329.457 1380.62,364.29 1407.5,399C 1321.56,465.457 1235.22,531.29 1148.5,596.5C 1100.52,533.191 1052.19,470.191 1003.5,407.5C 970.883,363.255 937.549,319.588 903.5,276.5C 870.216,231.588 836.216,187.254 801.5,143.5C 765.167,95.5 728.833,47.5 692.5,-0.5 Z"/></g>
<g><path style="opacity:0.978" fill="#a1749d" d="M 280.5,4.5 C 278.554,3.74557 277.721,2.41224 278,0.5C 279.481,1.47088 280.315,2.80422 280.5,4.5 Z"/></g>
<g><path style="opacity:0.975" fill="#a1749c" d="M 280.5,4.5 C 282.262,5.26231 283.262,6.59565 283.5,8.5C 281.738,7.73769 280.738,6.40435 280.5,4.5 Z"/></g>
<g><path style="opacity:0.998" fill="#a2749c" d="M 283.5,8.5 C 285.262,9.26231 286.262,10.5956 286.5,12.5C 284.738,11.7377 283.738,10.4044 283.5,8.5 Z"/></g>
<g><path style="opacity:1" fill="#a1739c" d="M 286.5,12.5 C 288.587,13.5846 289.92,15.2512 290.5,17.5C 288.413,16.4154 287.08,14.7488 286.5,12.5 Z"/></g>
<g><path style="opacity:0.994" fill="#a2739c" d="M 290.5,17.5 C 292.262,18.2623 293.262,19.5956 293.5,21.5C 291.738,20.7377 290.738,19.4044 290.5,17.5 Z"/></g>
<g><path style="opacity:0.992" fill="#a2739b" d="M 293.5,21.5 C 295.262,22.2623 296.262,23.5956 296.5,25.5C 294.738,24.7377 293.738,23.4044 293.5,21.5 Z"/></g>
<g><path style="opacity:0.984" fill="#a3729b" d="M 296.5,25.5 C 298.262,26.2623 299.262,27.5956 299.5,29.5C 297.738,28.7377 296.738,27.4044 296.5,25.5 Z"/></g>
<g><path style="opacity:0.989" fill="#a2729a" d="M 299.5,29.5 C 302.556,31.9485 304.889,34.9485 306.5,38.5C 303.444,36.0515 301.111,33.0515 299.5,29.5 Z"/></g>
<g><path style="opacity:0.785" fill="#b3764e" d="M 1102.5,-0.5 C 1103.17,-0.5 1103.83,-0.5 1104.5,-0.5C 1129.17,31.8333 1153.83,64.1667 1178.5,96.5C 1177.83,96.5 1177.5,96.8333 1177.5,97.5C 1151.76,65.4267 1126.76,32.76 1102.5,-0.5 Z"/></g>
<g><path style="opacity:0.983" fill="#a4729a" d="M 306.5,38.5 C 308.262,39.2623 309.262,40.5956 309.5,42.5C 307.738,41.7377 306.738,40.4044 306.5,38.5 Z"/></g>
<g><path style="opacity:0.983" fill="#a4719a" d="M 309.5,42.5 C 311.262,43.2623 312.262,44.5956 312.5,46.5C 310.738,45.7377 309.738,44.4044 309.5,42.5 Z"/></g>
<g><path style="opacity:0.989" fill="#a3719a" d="M 312.5,46.5 C 314.587,47.5846 315.92,49.2512 316.5,51.5C 314.413,50.4154 313.08,48.7488 312.5,46.5 Z"/></g>
<g><path style="opacity:0.978" fill="#a5719a" d="M 316.5,51.5 C 318.262,52.2623 319.262,53.5956 319.5,55.5C 317.738,54.7377 316.738,53.4044 316.5,51.5 Z"/></g>
<g><path style="opacity:0.996" fill="#a5709a" d="M 319.5,55.5 C 321.262,56.2623 322.262,57.5956 322.5,59.5C 320.738,58.7377 319.738,57.4044 319.5,55.5 Z"/></g>
<g><path style="opacity:0.996" fill="#a57099" d="M 322.5,59.5 C 324.262,60.2623 325.262,61.5956 325.5,63.5C 323.738,62.7377 322.738,61.4044 322.5,59.5 Z"/></g>
<g><path style="opacity:0.989" fill="#a57099" d="M 325.5,63.5 C 327.587,64.5846 328.92,66.2512 329.5,68.5C 327.413,67.4154 326.08,65.7488 325.5,63.5 Z"/></g>
<g><path style="opacity:0.963" fill="#a66f99" d="M 329.5,68.5 C 331.262,69.2623 332.262,70.5956 332.5,72.5C 330.738,71.7377 329.738,70.4044 329.5,68.5 Z"/></g>
<g><path style="opacity:0.984" fill="#a66f99" d="M 332.5,72.5 C 334.262,73.2623 335.262,74.5956 335.5,76.5C 333.738,75.7377 332.738,74.4044 332.5,72.5 Z"/></g>
<g><path style="opacity:0.976" fill="#a66f98" d="M 335.5,76.5 C 338.556,78.9485 340.889,81.9485 342.5,85.5C 339.444,83.0515 337.111,80.0515 335.5,76.5 Z"/></g>
<g><path style="opacity:0.975" fill="#a76e98" d="M 342.5,85.5 C 344.262,86.2623 345.262,87.5956 345.5,89.5C 343.738,88.7377 342.738,87.4044 342.5,85.5 Z"/></g>
<g><path style="opacity:0.977" fill="#a76f98" d="M 345.5,89.5 C 347.262,90.2623 348.262,91.5956 348.5,93.5C 346.738,92.7377 345.738,91.4044 345.5,89.5 Z"/></g>
<g><path style="opacity:0.98" fill="#79594a" d="M 689.5,-0.5 C 690.5,-0.5 691.5,-0.5 692.5,-0.5C 728.833,47.5 765.167,95.5 801.5,143.5C 801.5,144.167 801.5,144.833 801.5,145.5C 763.815,97.1422 726.481,48.4756 689.5,-0.5 Z"/></g>
<g><path style="opacity:0.855" fill="#cc8851" d="M 1178.5,96.5 C 1198.83,123.167 1219.17,149.833 1239.5,176.5C 1239.5,177.167 1239.17,177.5 1238.5,177.5C 1217.41,151.407 1197.07,124.741 1177.5,97.5C 1177.5,96.8333 1177.83,96.5 1178.5,96.5 Z"/></g>
<g><path style="opacity:0.794" fill="#e59555" d="M 1239.5,176.5 C 1269.85,215.525 1299.85,254.858 1329.5,294.5C 1328.83,294.5 1328.17,294.5 1327.5,294.5C 1297.48,255.808 1267.81,216.808 1238.5,177.5C 1239.17,177.5 1239.5,177.167 1239.5,176.5 Z"/></g>
<g><path style="opacity:0.971" fill="#9a6b4d" d="M 801.5,143.5 C 836.216,187.254 870.216,231.588 903.5,276.5C 903.833,277.833 904.167,279.167 904.5,280.5C 869.814,235.808 835.481,190.808 801.5,145.5C 801.5,144.833 801.5,144.167 801.5,143.5 Z"/></g>
<g><path style="opacity:0.968" fill="#975c7a" d="M 348.5,93.5 C 355.802,101.641 362.968,109.975 370,118.5C 419.74,183.395 469.24,248.395 518.5,313.5C 517.167,312.5 515.833,311.5 514.5,310.5C 458.407,238.741 403.074,166.408 348.5,93.5 Z"/></g>
<g><path style="opacity:0.831" fill="#a2759d" d="M 35.5,222.5 C 37.0174,222.511 38.1841,223.177 39,224.5C 84.7607,284.38 130.261,344.38 175.5,404.5C 175.5,405.167 175.167,405.5 174.5,405.5C 127.772,344.775 81.4384,283.775 35.5,222.5 Z"/></g>
<g><path style="opacity:0.977" fill="#b87c50" d="M 903.5,276.5 C 937.549,319.588 970.883,363.255 1003.5,407.5C 1004.17,409.167 1004.83,410.833 1005.5,412.5C 971.36,368.899 937.693,324.899 904.5,280.5C 904.167,279.167 903.833,277.833 903.5,276.5 Z"/></g>
<g><path style="opacity:0.848" fill="#fea357" d="M 1327.5,294.5 C 1328.17,294.5 1328.83,294.5 1329.5,294.5C 1355.8,328.315 1381.97,362.315 1408,396.5C 1408.98,397.759 1409.32,399.092 1409,400.5C 1322.89,467.123 1236.39,533.123 1149.5,598.5C 1149.17,598.5 1148.83,598.5 1148.5,598.5C 1148.5,597.833 1148.5,597.167 1148.5,596.5C 1235.22,531.29 1321.56,465.457 1407.5,399C 1380.62,364.29 1353.95,329.457 1327.5,294.5 Z"/></g>
<g><path style="opacity:0.98" fill="#a45973" d="M 514.5,310.5 C 515.833,311.5 517.167,312.5 518.5,313.5C 553.649,358.465 588.316,403.798 622.5,449.5C 621.206,448.71 620.039,447.71 619,446.5C 618.601,446.728 618.435,447.062 618.5,447.5C 583.593,402.022 548.926,356.355 514.5,310.5 Z"/></g>
<g><path style="opacity:0.812" fill="#ab6b97" d="M 175.5,404.5 C 206.558,443.618 236.891,483.285 266.5,523.5C 265.833,523.5 265.167,523.5 264.5,523.5C 234.5,484.167 204.5,444.833 174.5,405.5C 175.167,405.5 175.5,405.167 175.5,404.5 Z"/></g>
<g><path style="opacity:0.98" fill="#af5770" d="M 622.5,449.5 C 642.543,474.877 662.21,500.543 681.5,526.5C 680.5,525.833 679.5,525.167 678.5,524.5C 678.167,523.5 677.5,522.833 676.5,522.5C 656.936,497.719 637.603,472.719 618.5,447.5C 618.435,447.062 618.601,446.728 619,446.5C 620.039,447.71 621.206,448.71 622.5,449.5 Z"/></g>
<g><path style="opacity:0.989" fill="#db8f53" d="M 1003.5,407.5 C 1052.19,470.191 1100.52,533.191 1148.5,596.5C 1148.5,597.167 1148.5,597.833 1148.5,598.5C 1148.17,598.5 1147.83,598.5 1147.5,598.5C 1099.81,536.808 1052.48,474.808 1005.5,412.5C 1004.83,410.833 1004.17,409.167 1003.5,407.5 Z"/></g>
<g><path style="opacity:1" fill="#f8dabc" d="M 870.5,789.5 C 834.592,815.74 799.259,842.74 764.5,870.5C 719.925,903.407 675.925,937.074 632.5,971.5C 578.131,1012.35 524.131,1053.68 470.5,1095.5C 430.131,1125.68 390.131,1156.35 350.5,1187.5C 272.218,1246.61 194.051,1305.94 116,1365.5C 114.021,1363.6 112.021,1361.6 110,1359.5C 86.2428,1327.65 62.2428,1295.99 38,1264.5C 37.3292,1263.75 36.4959,1263.41 35.5,1263.5C 35.5,1181.17 35.5,1098.83 35.5,1016.5C 69.5606,992.135 102.894,966.802 135.5,940.5C 174.074,912.26 212.074,883.26 249.5,853.5C 286.535,825.982 323.202,797.982 359.5,769.5C 409.432,732.241 459.099,694.575 508.5,656.5C 538.857,633.136 569.191,609.802 599.5,586.5C 625.79,566.716 651.957,546.716 678,526.5C 744.076,612.32 809.909,698.32 875.5,784.5C 873.606,785.945 871.94,787.612 870.5,789.5 Z"/></g>
<g><path style="opacity:1" fill="#9a7263" d="M 690.5,538.5 C 692.531,539.539 693.864,541.205 694.5,543.5C 692.457,542.421 691.124,540.754 690.5,538.5 Z"/></g>
<g><path style="opacity:1" fill="#9d7363" d="M 703.5,555.5 C 705.531,556.539 706.864,558.205 707.5,560.5C 705.457,559.421 704.124,557.754 703.5,555.5 Z"/></g>
<g><path style="opacity:1" fill="#9f7563" d="M 716.5,572.5 C 718.531,573.539 719.864,575.205 720.5,577.5C 718.457,576.421 717.124,574.754 716.5,572.5 Z"/></g>
<g><path style="opacity:1" fill="#a17663" d="M 729.5,589.5 C 731.531,590.539 732.864,592.205 733.5,594.5C 731.457,593.421 730.124,591.754 729.5,589.5 Z"/></g>
<g><path style="opacity:0.98" fill="#9d76f2" d="M 678.5,524.5 C 679.5,525.167 680.5,525.833 681.5,526.5C 683.738,531.071 686.738,535.071 690.5,538.5C 691.124,540.754 692.457,542.421 694.5,543.5C 696.738,548.071 699.738,552.071 703.5,555.5C 704.124,557.754 705.457,559.421 707.5,560.5C 709.738,565.071 712.738,569.071 716.5,572.5C 717.124,574.754 718.457,576.421 720.5,577.5C 722.738,582.071 725.738,586.071 729.5,589.5C 730.124,591.754 731.457,593.421 733.5,594.5C 735.738,599.071 738.738,603.071 742.5,606.5C 743.124,608.754 744.457,610.421 746.5,611.5C 769.79,642.79 793.457,673.79 817.5,704.5C 818.08,706.749 819.413,708.415 821.5,709.5C 828.108,719.714 835.441,729.381 843.5,738.5C 844.08,740.749 845.413,742.415 847.5,743.5C 849.738,748.071 852.738,752.071 856.5,755.5C 857.08,757.749 858.413,759.415 860.5,760.5C 865.073,768.074 870.406,775.074 876.5,781.5C 876.557,782.609 876.89,783.609 877.5,784.5C 876.5,785.833 875.5,787.167 874.5,788.5C 872.938,788.733 871.605,789.4 870.5,790.5C 870.5,790.167 870.5,789.833 870.5,789.5C 871.94,787.612 873.606,785.945 875.5,784.5C 809.909,698.32 744.076,612.32 678,526.5C 651.957,546.716 625.79,566.716 599.5,586.5C 599.167,586.5 598.833,586.5 598.5,586.5C 624.857,565.482 651.523,544.815 678.5,524.5 Z"/></g>
<g><path style="opacity:1" fill="#a47763" d="M 742.5,606.5 C 744.531,607.539 745.864,609.205 746.5,611.5C 744.457,610.421 743.124,608.754 742.5,606.5 Z"/></g>
<g><path style="opacity:1" fill="#151311" d="M 1134.5,610.5 C 1132.97,610.427 1131.97,611.094 1131.5,612.5C 1129.24,610.788 1129.74,609.455 1133,608.5C 1134.03,608.836 1134.53,609.503 1134.5,610.5 Z"/></g>
<g><path style="opacity:1" fill="#f4d7b9" d="M 1134.5,610.5 C 1134.74,612.404 1135.74,613.738 1137.5,614.5C 1137.74,616.404 1138.74,617.738 1140.5,618.5C 1140.74,620.404 1141.74,621.738 1143.5,622.5C 1143.51,624.017 1144.18,625.184 1145.5,626C 1135.74,638.08 1126.91,650.58 1119,663.5C 1132.91,658.308 1146.91,653.308 1161,648.5C 1161.9,648.743 1162.74,649.077 1163.5,649.5C 1163.74,651.404 1164.74,652.738 1166.5,653.5C 1166.74,655.404 1167.74,656.738 1169.5,657.5C 1169.74,659.404 1170.74,660.738 1172.5,661.5C 1172.63,662.376 1172.3,663.043 1171.5,663.5C 1170.13,662.289 1168.63,661.289 1167,660.5C 1149.58,672.795 1132.42,685.462 1115.5,698.5C 1115.86,699.522 1116.52,700.189 1117.5,700.5C 1119.86,705.486 1118.86,705.82 1114.5,701.5C 1114.26,699.596 1113.26,698.262 1111.5,697.5C 1111.26,695.596 1110.26,694.262 1108.5,693.5C 1108.26,691.596 1107.26,690.262 1105.5,689.5C 1105.57,687.973 1104.91,686.973 1103.5,686.5C 1103.83,685.5 1104.5,684.833 1105.5,684.5C 1105.72,687.076 1107.06,687.91 1109.5,687C 1120.83,678.333 1132.17,669.667 1143.5,661C 1129.97,665.064 1116.47,669.564 1103,674.5C 1102.5,674.167 1102,673.833 1101.5,673.5C 1108.91,660.335 1116.58,647.335 1124.5,634.5C 1124,633.479 1123.33,633.312 1122.5,634C 1110.67,643.007 1099,652.173 1087.5,661.5C 1088.19,662.855 1089.19,663.855 1090.5,664.5C 1090.65,665.552 1090.48,666.552 1090,667.5C 1089.29,666.619 1088.46,665.953 1087.5,665.5C 1087.26,663.596 1086.26,662.262 1084.5,661.5C 1084.26,659.596 1083.26,658.262 1081.5,657.5C 1081.57,655.973 1080.91,654.973 1079.5,654.5C 1077.88,651.642 1078.54,650.975 1081.5,652.5C 1081.72,655.076 1083.06,655.91 1085.5,655C 1101.17,643.333 1116.83,631.667 1132.5,620C 1134.47,618.653 1134.8,617.153 1133.5,615.5C 1133.57,613.973 1132.91,612.973 1131.5,612.5C 1131.97,611.094 1132.97,610.427 1134.5,610.5 Z"/></g>
<g><path style="opacity:1" fill="#1c1a17" d="M 1134.5,610.5 C 1136.26,611.262 1137.26,612.596 1137.5,614.5C 1135.74,613.738 1134.74,612.404 1134.5,610.5 Z"/></g>
<g><path style="opacity:1" fill="#27231f" d="M 1131.5,612.5 C 1132.91,612.973 1133.57,613.973 1133.5,615.5C 1132.09,615.027 1131.43,614.027 1131.5,612.5 Z"/></g>
<g><path style="opacity:1" fill="#171512" d="M 1133.5,615.5 C 1134.8,617.153 1134.47,618.653 1132.5,620C 1116.83,631.667 1101.17,643.333 1085.5,655C 1083.06,655.91 1081.72,655.076 1081.5,652.5C 1083.19,653.686 1084.86,653.519 1086.5,652C 1102.6,640.297 1118.26,628.13 1133.5,615.5 Z"/></g>
<g><path style="opacity:1" fill="#1c1917" d="M 1137.5,614.5 C 1139.26,615.262 1140.26,616.596 1140.5,618.5C 1138.74,617.738 1137.74,616.404 1137.5,614.5 Z"/></g>
<g><path style="opacity:0.815" fill="#b5628e" d="M 264.5,523.5 C 265.167,523.5 265.833,523.5 266.5,523.5C 302.926,569.592 338.593,616.259 373.5,663.5C 372.833,663.5 372.5,663.833 372.5,664.5C 336.531,617.524 300.531,570.524 264.5,523.5 Z"/></g>
<g><path style="opacity:1" fill="#1b1916" d="M 1140.5,618.5 C 1142.26,619.262 1143.26,620.596 1143.5,622.5C 1141.74,621.738 1140.74,620.404 1140.5,618.5 Z"/></g>
<g><path style="opacity:1" fill="#12100e" d="M 1143.5,622.5 C 1146.78,624.177 1147.28,626.51 1145,629.5C 1137.71,639.245 1130.54,649.078 1123.5,659C 1136.03,655.269 1148.53,651.102 1161,646.5C 1162.75,646.748 1163.58,647.748 1163.5,649.5C 1162.74,649.077 1161.9,648.743 1161,648.5C 1146.91,653.308 1132.91,658.308 1119,663.5C 1126.91,650.58 1135.74,638.08 1145.5,626C 1144.18,625.184 1143.51,624.017 1143.5,622.5 Z"/></g>
<g><path style="opacity:1" fill="#161411" d="M 1081.5,652.5 C 1078.54,650.975 1077.88,651.642 1079.5,654.5C 1075.82,652.797 1075.65,650.797 1079,648.5C 1080.48,649.471 1081.31,650.804 1081.5,652.5 Z"/></g>
<g><path style="opacity:0.995" fill="#8e6ad6" d="M 598.5,586.5 C 598.833,586.5 599.167,586.5 599.5,586.5C 569.191,609.802 538.857,633.136 508.5,656.5C 508.5,655.833 508.5,655.167 508.5,654.5C 538.235,631.425 568.235,608.758 598.5,586.5 Z"/></g>
<g><path style="opacity:1" fill="#2f2a25" d="M 1163.5,649.5 C 1165.26,650.262 1166.26,651.596 1166.5,653.5C 1164.74,652.738 1163.74,651.404 1163.5,649.5 Z"/></g>
<g><path style="opacity:1" fill="#110f0d" d="M 1079.5,654.5 C 1080.91,654.973 1081.57,655.973 1081.5,657.5C 1080.09,657.027 1079.43,656.027 1079.5,654.5 Z"/></g>
<g><path style="opacity:1" fill="#2f2a25" d="M 1166.5,653.5 C 1168.26,654.262 1169.26,655.596 1169.5,657.5C 1167.74,656.738 1166.74,655.404 1166.5,653.5 Z"/></g>
<g><path style="opacity:1" fill="#302b25" d="M 1081.5,657.5 C 1083.26,658.262 1084.26,659.596 1084.5,661.5C 1082.74,660.738 1081.74,659.404 1081.5,657.5 Z"/></g>
<g><path style="opacity:1" fill="#2f2a25" d="M 1169.5,657.5 C 1171.26,658.262 1172.26,659.596 1172.5,661.5C 1170.74,660.738 1169.74,659.404 1169.5,657.5 Z"/></g>
<g><path style="opacity:1" fill="#171512" d="M 1105.5,684.5 C 1106.42,685.303 1107.42,685.47 1108.5,685C 1116.5,679 1124.5,673 1132.5,667C 1122.57,669.531 1112.74,672.698 1103,676.5C 1100.28,675.792 1099.28,674.125 1100,671.5C 1106.5,661 1113,650.5 1119.5,640C 1109.54,646.083 1099.87,652.917 1090.5,660.5C 1089.71,661.7 1089.71,663.033 1090.5,664.5C 1089.19,663.855 1088.19,662.855 1087.5,661.5C 1099,652.173 1110.67,643.007 1122.5,634C 1123.33,633.312 1124,633.479 1124.5,634.5C 1116.58,647.335 1108.91,660.335 1101.5,673.5C 1102,673.833 1102.5,674.167 1103,674.5C 1116.47,669.564 1129.97,665.064 1143.5,661C 1132.17,669.667 1120.83,678.333 1109.5,687C 1107.06,687.91 1105.72,687.076 1105.5,684.5 Z"/></g>
<g><path style="opacity:1" fill="#171513" d="M 1172.5,661.5 C 1175.05,663.163 1174.89,664.83 1172,666.5C 1170.45,663.898 1168.28,662.731 1165.5,663C 1151.12,674.385 1136.45,685.385 1121.5,696C 1119.81,697.307 1118.47,698.807 1117.5,700.5C 1116.52,700.189 1115.86,699.522 1115.5,698.5C 1132.42,685.462 1149.58,672.795 1167,660.5C 1168.63,661.289 1170.13,662.289 1171.5,663.5C 1172.3,663.043 1172.63,662.376 1172.5,661.5 Z"/></g>
<g><path style="opacity:1" fill="#302b25" d="M 1084.5,661.5 C 1086.26,662.262 1087.26,663.596 1087.5,665.5C 1085.74,664.738 1084.74,663.404 1084.5,661.5 Z"/></g>
<g><path style="opacity:1" fill="#1e1b18" d="M 1090.5,664.5 C 1091.63,665.122 1092.63,665.955 1093.5,667C 1092.07,667.465 1090.9,668.299 1090,669.5C 1088.52,668.529 1087.69,667.196 1087.5,665.5C 1088.46,665.953 1089.29,666.619 1090,667.5C 1090.48,666.552 1090.65,665.552 1090.5,664.5 Z"/></g>
<g><path style="opacity:1" fill="#0d0b0a" d="M 1105.5,684.5 C 1104.5,684.833 1103.83,685.5 1103.5,686.5C 1101.16,685.033 1101.49,683.699 1104.5,682.5C 1105.3,682.957 1105.63,683.624 1105.5,684.5 Z"/></g>
<g><path style="opacity:1" fill="#141210" d="M 1189.5,684.5 C 1188.55,685.919 1188.22,687.585 1188.5,689.5C 1175.79,692.47 1163.29,696.136 1151,700.5C 1149.96,699.627 1149.12,698.627 1148.5,697.5C 1149.5,697.414 1150.33,697.748 1151,698.5C 1162.31,694.463 1173.81,690.963 1185.5,688C 1187.05,686.56 1187.88,684.727 1188,682.5C 1188.72,683.044 1189.22,683.711 1189.5,684.5 Z"/></g>
<g><path style="opacity:1" fill="#f4d7b9" d="M 1189.5,684.5 C 1190.08,686.749 1191.41,688.415 1193.5,689.5C 1193.74,691.404 1194.74,692.738 1196.5,693.5C 1196.74,695.404 1197.74,696.738 1199.5,697.5C 1199.74,700.226 1198.9,702.559 1197,704.5C 1184.09,720.653 1171.42,736.986 1159,753.5C 1158.26,754.749 1158.43,755.749 1159.5,756.5C 1159.74,758.404 1160.74,759.738 1162.5,760.5C 1162.37,761.376 1162.7,762.043 1163.5,762.5C 1180.87,749.488 1198.2,736.488 1215.5,723.5C 1215.14,722.478 1214.48,721.811 1213.5,721.5C 1212.48,717.849 1213.48,717.516 1216.5,720.5C 1216.74,722.404 1217.74,723.738 1219.5,724.5C 1219.74,726.404 1220.74,727.738 1222.5,728.5C 1222.74,730.404 1223.74,731.738 1225.5,732.5C 1225.74,734.404 1226.74,735.738 1228.5,736.5C 1228.2,738.796 1227.2,739.129 1225.5,737.5C 1225.49,735.314 1224.49,734.481 1222.5,735C 1205.5,747.833 1188.5,760.667 1171.5,773.5C 1172.19,774.855 1173.19,775.855 1174.5,776.5C 1174.2,778.796 1173.2,779.129 1171.5,777.5C 1171.26,775.596 1170.26,774.262 1168.5,773.5C 1168.26,771.596 1167.26,770.262 1165.5,769.5C 1165.26,767.596 1164.26,766.262 1162.5,765.5C 1162.26,763.596 1161.26,762.262 1159.5,761.5C 1159.26,759.596 1158.26,758.262 1156.5,757.5C 1156.26,755.596 1155.26,754.262 1153.5,753.5C 1153.26,751.596 1152.26,750.262 1150.5,749.5C 1150.26,747.596 1149.26,746.262 1147.5,745.5C 1147.57,743.973 1146.91,742.973 1145.5,742.5C 1145.5,741.167 1146.17,740.5 1147.5,740.5C 1147.46,741.756 1147.96,742.756 1149,743.5C 1153.71,738.457 1158.05,733.123 1162,727.5C 1162.19,721.951 1160.69,716.951 1157.5,712.5C 1157.25,710.326 1156.25,708.659 1154.5,707.5C 1154.52,705.516 1153.52,704.516 1151.5,704.5C 1142.83,707 1134.17,709.5 1125.5,712C 1128.3,717.238 1127.63,717.738 1123.5,713.5C 1123.26,711.596 1122.26,710.262 1120.5,709.5C 1118.99,704.556 1119.82,704.222 1123,708.5C 1131.65,706.06 1140.15,703.227 1148.5,700C 1147.62,699.292 1146.95,698.458 1146.5,697.5C 1147.17,697.5 1147.83,697.5 1148.5,697.5C 1149.12,698.627 1149.96,699.627 1151,700.5C 1163.29,696.136 1175.79,692.47 1188.5,689.5C 1188.22,687.585 1188.55,685.919 1189.5,684.5 Z"/></g>
<g><path style="opacity:1" fill="#211e1a" d="M 1189.5,684.5 C 1191.59,685.585 1192.92,687.251 1193.5,689.5C 1191.41,688.415 1190.08,686.749 1189.5,684.5 Z"/></g>
<g><path style="opacity:1" fill="#110f0d" d="M 1103.5,686.5 C 1104.91,686.973 1105.57,687.973 1105.5,689.5C 1104.09,689.027 1103.43,688.027 1103.5,686.5 Z"/></g>
<g><path style="opacity:1" fill="#302b25" d="M 1105.5,689.5 C 1107.26,690.262 1108.26,691.596 1108.5,693.5C 1106.74,692.738 1105.74,691.404 1105.5,689.5 Z"/></g>
<g><path style="opacity:1" fill="#211e1b" d="M 1193.5,689.5 C 1195.26,690.262 1196.26,691.596 1196.5,693.5C 1194.74,692.738 1193.74,691.404 1193.5,689.5 Z"/></g>
<g><path style="opacity:1" fill="#12100e" d="M 1164.5,714.5 C 1165.58,715.974 1166.92,716.807 1168.5,717C 1174.54,710.627 1180.21,703.96 1185.5,697C 1175.86,698.908 1166.53,701.741 1157.5,705.5C 1155.77,704.992 1155.43,704.159 1156.5,703C 1167.09,700.026 1177.59,696.859 1188,693.5C 1188.52,695.289 1188.19,696.956 1187,698.5C 1180.72,705.573 1174.55,712.74 1168.5,720C 1166.16,719.235 1164.82,717.402 1164.5,714.5 Z"/></g>
<g><path style="opacity:1" fill="#302b25" d="M 1108.5,693.5 C 1110.26,694.262 1111.26,695.596 1111.5,697.5C 1109.74,696.738 1108.74,695.404 1108.5,693.5 Z"/></g>
<g><path style="opacity:1" fill="#26221e" d="M 1196.5,693.5 C 1198.26,694.262 1199.26,695.596 1199.5,697.5C 1197.74,696.738 1196.74,695.404 1196.5,693.5 Z"/></g>
<g><path style="opacity:1" fill="#f4d6b9" d="M 1164.5,714.5 C 1164.26,712.596 1163.26,711.262 1161.5,710.5C 1160.92,708.251 1159.59,706.585 1157.5,705.5C 1166.53,701.741 1175.86,698.908 1185.5,697C 1180.21,703.96 1174.54,710.627 1168.5,717C 1166.92,716.807 1165.58,715.974 1164.5,714.5 Z"/></g>
<g><path style="opacity:1" fill="#151311" d="M 1148.5,697.5 C 1147.83,697.5 1147.17,697.5 1146.5,697.5C 1146.95,698.458 1147.62,699.292 1148.5,700C 1140.15,703.227 1131.65,706.06 1123,708.5C 1119.82,704.222 1118.99,704.556 1120.5,709.5C 1118.12,707.122 1116.12,704.455 1114.5,701.5C 1118.86,705.82 1119.86,705.486 1117.5,700.5C 1119.49,702.467 1121.49,704.467 1123.5,706.5C 1130.98,704.285 1138.31,701.785 1145.5,699C 1142.83,697.667 1140.17,696.333 1137.5,695C 1141.75,692.076 1145.42,692.91 1148.5,697.5 Z"/></g>
<g><path style="opacity:1" fill="#f6d8ba" d="M 1146.5,697.5 C 1144.41,696.955 1142.41,696.122 1140.5,695C 1143.08,694.458 1145.08,695.292 1146.5,697.5 Z"/></g>
<g><path style="opacity:1" fill="#302b25" d="M 1111.5,697.5 C 1113.26,698.262 1114.26,699.596 1114.5,701.5C 1112.74,700.738 1111.74,699.404 1111.5,697.5 Z"/></g>
<g><path style="opacity:0.8" fill="#be5888" d="M 676.5,522.5 C 677.5,522.833 678.167,523.5 678.5,524.5C 651.523,544.815 624.857,565.482 598.5,586.5C 568.235,608.758 538.235,631.425 508.5,654.5C 478.432,677.908 448.099,700.908 417.5,723.5C 402.257,704.013 387.257,684.347 372.5,664.5C 372.5,663.833 372.833,663.5 373.5,663.5C 388.888,682.583 404.055,701.916 419,721.5C 503.897,655.97 589.063,590.803 674.5,526C 675.823,525.184 676.489,524.017 676.5,522.5 Z"/></g>
<g><path style="opacity:1" fill="#151311" d="M 1199.5,697.5 C 1201.1,698.799 1201.6,700.465 1201,702.5C 1186.95,720.376 1173.12,738.376 1159.5,756.5C 1158.43,755.749 1158.26,754.749 1159,753.5C 1171.42,736.986 1184.09,720.653 1197,704.5C 1198.9,702.559 1199.74,700.226 1199.5,697.5 Z"/></g>
<g><path style="opacity:1" fill="#161412" d="M 1154.5,707.5 C 1153.58,707.018 1152.58,706.685 1151.5,706.5C 1143.76,708.635 1136.1,710.968 1128.5,713.5C 1130.02,715.586 1129.69,717.252 1127.5,718.5C 1125.39,717.395 1124.06,715.729 1123.5,713.5C 1127.63,717.738 1128.3,717.238 1125.5,712C 1134.17,709.5 1142.83,707 1151.5,704.5C 1153.52,704.516 1154.52,705.516 1154.5,707.5 Z"/></g>
<g><path style="opacity:1" fill="#ae795e" d="M 817.5,704.5 C 819.531,705.539 820.864,707.205 821.5,709.5C 819.413,708.415 818.08,706.749 817.5,704.5 Z"/></g>
<g><path style="opacity:1" fill="#100e0c" d="M 1154.5,707.5 C 1156.25,708.659 1157.25,710.326 1157.5,712.5C 1155.75,711.341 1154.75,709.674 1154.5,707.5 Z"/></g>
<g><path style="opacity:1" fill="#1f1c19" d="M 1157.5,705.5 C 1159.59,706.585 1160.92,708.251 1161.5,710.5C 1159.41,709.415 1158.08,707.749 1157.5,705.5 Z"/></g>
<g><path style="opacity:1" fill="#302b25" d="M 1120.5,709.5 C 1122.26,710.262 1123.26,711.596 1123.5,713.5C 1121.74,712.738 1120.74,711.404 1120.5,709.5 Z"/></g>
<g><path style="opacity:1" fill="#26221e" d="M 1161.5,710.5 C 1163.26,711.262 1164.26,712.596 1164.5,714.5C 1162.74,713.738 1161.74,712.404 1161.5,710.5 Z"/></g>
<g><path style="opacity:0.822" fill="#c98452" d="M 1147.5,598.5 C 1147.83,598.5 1148.17,598.5 1148.5,598.5C 1148.83,598.5 1149.17,598.5 1149.5,598.5C 1182.83,642.167 1216.17,685.833 1249.5,729.5C 1249.5,730.167 1249.5,730.833 1249.5,731.5C 1214.78,687.746 1180.78,643.412 1147.5,598.5 Z"/></g>
<g><path style="opacity:1" fill="#12100e" d="M 1216.5,720.5 C 1213.48,717.516 1212.48,717.849 1213.5,721.5C 1210.19,719.372 1210.19,717.706 1213.5,716.5C 1215.29,717.283 1216.29,718.616 1216.5,720.5 Z"/></g>
<g><path style="opacity:1" fill="#1d1a18" d="M 1216.5,720.5 C 1218.26,721.262 1219.26,722.596 1219.5,724.5C 1217.74,723.738 1216.74,722.404 1216.5,720.5 Z"/></g>
<g><path style="opacity:1" fill="#1d1a18" d="M 1219.5,724.5 C 1221.26,725.262 1222.26,726.596 1222.5,728.5C 1220.74,727.738 1219.74,726.404 1219.5,724.5 Z"/></g>
<g><path style="opacity:1" fill="#12100e" d="M 1157.5,712.5 C 1160.69,716.951 1162.19,721.951 1162,727.5C 1158.05,733.123 1153.71,738.457 1149,743.5C 1147.96,742.756 1147.46,741.756 1147.5,740.5C 1149.72,739.797 1151.55,738.464 1153,736.5C 1155.09,733.319 1157.43,730.319 1160,727.5C 1160.67,725.167 1160.67,722.833 1160,720.5C 1158.86,717.904 1158.03,715.237 1157.5,712.5 Z"/></g>
<g><path style="opacity:1" fill="#1d1a18" d="M 1222.5,728.5 C 1224.26,729.262 1225.26,730.596 1225.5,732.5C 1223.74,731.738 1222.74,730.404 1222.5,728.5 Z"/></g>
<g><path style="opacity:1" fill="#1d1a18" d="M 1225.5,732.5 C 1227.26,733.262 1228.26,734.596 1228.5,736.5C 1226.74,735.738 1225.74,734.404 1225.5,732.5 Z"/></g>
<g><path style="opacity:1" fill="#000000" d="M 1147.5,740.5 C 1146.17,740.5 1145.5,741.167 1145.5,742.5C 1143.16,741.033 1143.49,739.699 1146.5,738.5C 1147.3,738.957 1147.63,739.624 1147.5,740.5 Z"/></g>
<g><path style="opacity:1" fill="#1f1c19" d="M 1228.5,736.5 C 1230.59,737.585 1231.92,739.251 1232.5,741.5C 1231.16,739.887 1229.5,739.387 1227.5,740C 1226.02,741.574 1224.35,742.907 1222.5,744C 1223.25,744.671 1223.59,745.504 1223.5,746.5C 1222.19,745.855 1221.19,744.855 1220.5,743.5C 1222.91,742.095 1224.57,740.095 1225.5,737.5C 1227.2,739.129 1228.2,738.796 1228.5,736.5 Z"/></g>
<g><path style="opacity:0.824" fill="#755bb3" d="M 508.5,654.5 C 508.5,655.167 508.5,655.833 508.5,656.5C 459.099,694.575 409.432,732.241 359.5,769.5C 358.833,769.5 358.5,769.167 358.5,768.5C 377.858,753.148 397.525,738.148 417.5,723.5C 448.099,700.908 478.432,677.908 508.5,654.5 Z"/></g>
<g><path style="opacity:1" fill="#f5d8ba" d="M 1232.5,741.5 C 1232.74,743.404 1233.74,744.738 1235.5,745.5C 1235.74,747.404 1236.74,748.738 1238.5,749.5C 1238.74,751.404 1239.74,752.738 1241.5,753.5C 1241.74,755.404 1242.74,756.738 1244.5,757.5C 1244.74,759.404 1245.74,760.738 1247.5,761.5C 1247.74,763.404 1248.74,764.738 1250.5,765.5C 1250.74,767.404 1251.74,768.738 1253.5,769.5C 1253.74,771.404 1254.74,772.738 1256.5,773.5C 1256.74,775.404 1257.74,776.738 1259.5,777.5C 1259.74,779.404 1260.74,780.738 1262.5,781.5C 1262.74,783.404 1263.74,784.738 1265.5,785.5C 1265.5,786.167 1265.5,786.833 1265.5,787.5C 1264.54,787.047 1263.71,786.381 1263,785.5C 1261.62,787.213 1259.96,788.547 1258,789.5C 1255.14,786.799 1254.97,783.799 1257.5,780.5C 1257.24,778.308 1256.24,776.641 1254.5,775.5C 1254.26,773.596 1253.26,772.262 1251.5,771.5C 1251.59,770.005 1250.92,769.005 1249.5,768.5C 1231.77,781.025 1214.44,794.025 1197.5,807.5C 1197.86,808.522 1198.52,809.189 1199.5,809.5C 1200.09,810.767 1200.09,811.767 1199.5,812.5C 1198.15,811.476 1196.81,810.476 1195.5,809.5C 1195.26,807.596 1194.26,806.262 1192.5,805.5C 1192.26,803.596 1191.26,802.262 1189.5,801.5C 1189.26,799.596 1188.26,798.262 1186.5,797.5C 1186.57,795.973 1185.91,794.973 1184.5,794.5C 1184.8,792.204 1185.8,791.871 1187.5,793.5C 1187.41,794.995 1188.08,795.995 1189.5,796.5C 1206.98,783.525 1224.31,770.359 1241.5,757C 1240.96,756.283 1240.29,755.783 1239.5,755.5C 1238.92,753.251 1237.59,751.585 1235.5,750.5C 1235.42,749.25 1234.76,748.417 1233.5,748C 1230.08,747.752 1226.75,747.252 1223.5,746.5C 1223.59,745.504 1223.25,744.671 1222.5,744C 1224.35,742.907 1226.02,741.574 1227.5,740C 1229.5,739.387 1231.16,739.887 1232.5,741.5 Z"/></g>
<g><path style="opacity:1" fill="#b37c5e" d="M 843.5,738.5 C 845.531,739.539 846.864,741.205 847.5,743.5C 845.413,742.415 844.08,740.749 843.5,738.5 Z"/></g>
<g><path style="opacity:1" fill="#13110f" d="M 1213.5,721.5 C 1214.48,721.811 1215.14,722.478 1215.5,723.5C 1198.2,736.488 1180.87,749.488 1163.5,762.5C 1162.7,762.043 1162.37,761.376 1162.5,760.5C 1179.29,748.596 1195.95,736.43 1212.5,724C 1213.25,723.329 1213.59,722.496 1213.5,721.5 Z"/></g>
<g><path style="opacity:1" fill="#110f0d" d="M 1145.5,742.5 C 1146.91,742.973 1147.57,743.973 1147.5,745.5C 1146.09,745.027 1145.43,744.027 1145.5,742.5 Z"/></g>
<g><path style="opacity:1" fill="#25211d" d="M 1232.5,741.5 C 1234.26,742.262 1235.26,743.596 1235.5,745.5C 1233.74,744.738 1232.74,743.404 1232.5,741.5 Z"/></g>
<g><path style="opacity:1" fill="#302b25" d="M 1147.5,745.5 C 1149.26,746.262 1150.26,747.596 1150.5,749.5C 1148.74,748.738 1147.74,747.404 1147.5,745.5 Z"/></g>
<g><path style="opacity:1" fill="#12100e" d="M 1223.5,746.5 C 1226.75,747.252 1230.08,747.752 1233.5,748C 1234.76,748.417 1235.42,749.25 1235.5,750.5C 1232.54,748.409 1229.37,748.075 1226,749.5C 1224.25,749.252 1223.42,748.252 1223.5,746.5 Z"/></g>
<g><path style="opacity:1" fill="#25211d" d="M 1235.5,745.5 C 1237.26,746.262 1238.26,747.596 1238.5,749.5C 1236.74,748.738 1235.74,747.404 1235.5,745.5 Z"/></g>
<g><path style="opacity:1" fill="#302b25" d="M 1150.5,749.5 C 1152.26,750.262 1153.26,751.596 1153.5,753.5C 1151.74,752.738 1150.74,751.404 1150.5,749.5 Z"/></g>
<g><path style="opacity:1" fill="#25211d" d="M 1238.5,749.5 C 1240.26,750.262 1241.26,751.596 1241.5,753.5C 1239.74,752.738 1238.74,751.404 1238.5,749.5 Z"/></g>
<g><path style="opacity:1" fill="#161412" d="M 1225.5,737.5 C 1224.21,736.499 1222.88,736.666 1221.5,738C 1205.5,750 1189.5,762 1173.5,774C 1174.25,774.671 1174.59,775.504 1174.5,776.5C 1173.19,775.855 1172.19,774.855 1171.5,773.5C 1188.5,760.667 1205.5,747.833 1222.5,735C 1224.49,734.481 1225.49,735.314 1225.5,737.5 Z"/></g>
<g><path style="opacity:1" fill="#231f1c" d="M 1235.5,750.5 C 1237.59,751.585 1238.92,753.251 1239.5,755.5C 1237.41,754.415 1236.08,752.749 1235.5,750.5 Z"/></g>
<g><path style="opacity:1" fill="#302b25" d="M 1153.5,753.5 C 1155.26,754.262 1156.26,755.596 1156.5,757.5C 1154.74,756.738 1153.74,755.404 1153.5,753.5 Z"/></g>
<g><path style="opacity:1" fill="#25211d" d="M 1241.5,753.5 C 1243.26,754.262 1244.26,755.596 1244.5,757.5C 1242.74,756.738 1241.74,755.404 1241.5,753.5 Z"/></g>
<g><path style="opacity:1" fill="#b67e5e" d="M 856.5,755.5 C 858.531,756.539 859.864,758.205 860.5,760.5C 858.413,759.415 857.08,757.749 856.5,755.5 Z"/></g>
<g><path style="opacity:1" fill="#161412" d="M 1159.5,756.5 C 1161.26,757.262 1162.26,758.596 1162.5,760.5C 1160.74,759.738 1159.74,758.404 1159.5,756.5 Z"/></g>
<g><path style="opacity:1" fill="#221e1b" d="M 1156.5,757.5 C 1158.26,758.262 1159.26,759.596 1159.5,761.5C 1157.74,760.738 1156.74,759.404 1156.5,757.5 Z"/></g>
<g><path style="opacity:1" fill="#25211d" d="M 1244.5,757.5 C 1246.26,758.262 1247.26,759.596 1247.5,761.5C 1245.74,760.738 1244.74,759.404 1244.5,757.5 Z"/></g>
<g><path style="opacity:1" fill="#302b25" d="M 1159.5,761.5 C 1161.26,762.262 1162.26,763.596 1162.5,765.5C 1160.74,764.738 1159.74,763.404 1159.5,761.5 Z"/></g>
<g><path style="opacity:1" fill="#25211d" d="M 1247.5,761.5 C 1249.26,762.262 1250.26,763.596 1250.5,765.5C 1248.74,764.738 1247.74,763.404 1247.5,761.5 Z"/></g>
<g><path style="opacity:1" fill="#302b25" d="M 1162.5,765.5 C 1164.26,766.262 1165.26,767.596 1165.5,769.5C 1163.74,768.738 1162.74,767.404 1162.5,765.5 Z"/></g>
<g><path style="opacity:1" fill="#25211d" d="M 1250.5,765.5 C 1252.26,766.262 1253.26,767.596 1253.5,769.5C 1251.74,768.738 1250.74,767.404 1250.5,765.5 Z"/></g>
<g><path style="opacity:1" fill="#110f0d" d="M 1239.5,755.5 C 1240.29,755.783 1240.96,756.283 1241.5,757C 1224.31,770.359 1206.98,783.525 1189.5,796.5C 1188.08,795.995 1187.41,794.995 1187.5,793.5C 1188.79,794.501 1190.12,794.334 1191.5,793C 1207.97,781.018 1223.97,768.518 1239.5,755.5 Z"/></g>
<g><path style="opacity:1" fill="#302b25" d="M 1165.5,769.5 C 1167.26,770.262 1168.26,771.596 1168.5,773.5C 1166.74,772.738 1165.74,771.404 1165.5,769.5 Z"/></g>
<g><path style="opacity:1" fill="#25211d" d="M 1253.5,769.5 C 1255.26,770.262 1256.26,771.596 1256.5,773.5C 1254.74,772.738 1253.74,771.404 1253.5,769.5 Z"/></g>
<g><path style="opacity:1" fill="#1a1715" d="M 1251.5,771.5 C 1253.26,772.262 1254.26,773.596 1254.5,775.5C 1252.74,774.738 1251.74,773.404 1251.5,771.5 Z"/></g>
<g><path style="opacity:1" fill="#302b25" d="M 1168.5,773.5 C 1170.26,774.262 1171.26,775.596 1171.5,777.5C 1169.74,776.738 1168.74,775.404 1168.5,773.5 Z"/></g>
<g><path style="opacity:1" fill="#25211d" d="M 1256.5,773.5 C 1258.26,774.262 1259.26,775.596 1259.5,777.5C 1257.74,776.738 1256.74,775.404 1256.5,773.5 Z"/></g>
<g><path style="opacity:1" fill="#211d1a" d="M 1174.5,776.5 C 1176.47,777.255 1176.8,778.421 1175.5,780C 1173.06,780.91 1171.72,780.076 1171.5,777.5C 1173.2,779.129 1174.2,778.796 1174.5,776.5 Z"/></g>
<g><path style="opacity:1" fill="#25211d" d="M 1259.5,777.5 C 1261.26,778.262 1262.26,779.596 1262.5,781.5C 1260.74,780.738 1259.74,779.404 1259.5,777.5 Z"/></g>
<g><path style="opacity:1" fill="#151311" d="M 1251.5,771.5 C 1250.21,770.499 1248.88,770.666 1247.5,772C 1232.17,783.333 1216.83,794.667 1201.5,806C 1200.18,806.816 1199.51,807.983 1199.5,809.5C 1198.52,809.189 1197.86,808.522 1197.5,807.5C 1214.44,794.025 1231.77,781.025 1249.5,768.5C 1250.92,769.005 1251.59,770.005 1251.5,771.5 Z"/></g>
<g><path style="opacity:1" fill="#211e1b" d="M 1262.5,781.5 C 1264.26,782.262 1265.26,783.596 1265.5,785.5C 1263.74,784.738 1262.74,783.404 1262.5,781.5 Z"/></g>
<g><path style="opacity:1" fill="#453d52" d="M 877.5,784.5 C 879.218,786.223 880.551,788.223 881.5,790.5C 880.185,789.524 878.852,788.524 877.5,787.5C 876.583,788.127 875.583,788.461 874.5,788.5C 875.5,787.167 876.5,785.833 877.5,784.5 Z"/></g>
<g><path style="opacity:1" fill="#f8dabc" d="M 881.5,790.5 C 882.124,792.754 883.457,794.421 885.5,795.5C 885.738,797.404 886.738,798.738 888.5,799.5C 891.109,804.383 894.443,808.716 898.5,812.5C 898.738,814.404 899.738,815.738 901.5,816.5C 904.109,821.383 907.443,825.716 911.5,829.5C 911.738,831.404 912.738,832.738 914.5,833.5C 914.738,835.404 915.738,836.738 917.5,837.5C 919.482,840.81 921.815,843.81 924.5,846.5C 924.738,848.404 925.738,849.738 927.5,850.5C 930.109,855.383 933.443,859.716 937.5,863.5C 937.738,865.404 938.738,866.738 940.5,867.5C 943.109,872.383 946.443,876.716 950.5,880.5C 950.738,882.404 951.738,883.738 953.5,884.5C 953.738,886.404 954.738,887.738 956.5,888.5C 956.738,890.404 957.738,891.738 959.5,892.5C 959.5,893.167 959.833,893.5 960.5,893.5C 960.427,895.027 961.094,896.027 962.5,896.5C 963.124,898.754 964.457,900.421 966.5,901.5C 966.738,903.404 967.738,904.738 969.5,905.5C 969.738,907.404 970.738,908.738 972.5,909.5C 972.5,910.167 972.833,910.5 973.5,910.5C 973.427,912.027 974.094,913.027 975.5,913.5C 975.5,914.167 975.833,914.5 976.5,914.5C 976.738,916.404 977.738,917.738 979.5,918.5C 979.738,920.404 980.738,921.738 982.5,922.5C 982.738,924.404 983.738,925.738 985.5,926.5C 985.5,927.167 985.833,927.5 986.5,927.5C 986.427,929.027 987.094,930.027 988.5,930.5C 988.5,931.167 988.833,931.5 989.5,931.5C 989.738,933.404 990.738,934.738 992.5,935.5C 992.738,937.404 993.738,938.738 995.5,939.5C 995.738,941.404 996.738,942.738 998.5,943.5C 998.5,944.167 998.833,944.5 999.5,944.5C 999.427,946.027 1000.09,947.027 1001.5,947.5C 1001.5,948.167 1001.83,948.5 1002.5,948.5C 1002.74,950.404 1003.74,951.738 1005.5,952.5C 1005.74,954.404 1006.74,955.738 1008.5,956.5C 1008.74,958.404 1009.74,959.738 1011.5,960.5C 1011.5,961.167 1011.83,961.5 1012.5,961.5C 1012.43,963.027 1013.09,964.027 1014.5,964.5C 1014.5,965.167 1014.83,965.5 1015.5,965.5C 1015.74,967.404 1016.74,968.738 1018.5,969.5C 1018.74,971.404 1019.74,972.738 1021.5,973.5C 1021.74,975.404 1022.74,976.738 1024.5,977.5C 1024.5,978.167 1024.83,978.5 1025.5,978.5C 1025.43,980.027 1026.09,981.027 1027.5,981.5C 1027.5,982.167 1027.83,982.5 1028.5,982.5C 1028.74,984.404 1029.74,985.738 1031.5,986.5C 1031.74,988.404 1032.74,989.738 1034.5,990.5C 1034.74,992.404 1035.74,993.738 1037.5,994.5C 1037.5,995.167 1037.83,995.5 1038.5,995.5C 1038.43,997.027 1039.09,998.027 1040.5,998.5C 1040.5,999.167 1040.83,999.5 1041.5,999.5C 1041.74,1001.4 1042.74,1002.74 1044.5,1003.5C 1044.74,1005.4 1045.74,1006.74 1047.5,1007.5C 1047.74,1009.4 1048.74,1010.74 1050.5,1011.5C 1050.5,1012.17 1050.83,1012.5 1051.5,1012.5C 1051.43,1014.03 1052.09,1015.03 1053.5,1015.5C 1053.5,1016.17 1053.83,1016.5 1054.5,1016.5C 1054.74,1018.4 1055.74,1019.74 1057.5,1020.5C 1057.74,1022.4 1058.74,1023.74 1060.5,1024.5C 1060.74,1026.4 1061.74,1027.74 1063.5,1028.5C 1063.5,1029.17 1063.83,1029.5 1064.5,1029.5C 1064.43,1031.03 1065.09,1032.03 1066.5,1032.5C 1066.5,1033.17 1066.83,1033.5 1067.5,1033.5C 1067.74,1035.4 1068.74,1036.74 1070.5,1037.5C 1070.74,1039.4 1071.74,1040.74 1073.5,1041.5C 1073.74,1043.4 1074.74,1044.74 1076.5,1045.5C 1076.5,1046.17 1076.83,1046.5 1077.5,1046.5C 1077.43,1048.03 1078.09,1049.03 1079.5,1049.5C 1079.5,1050.17 1079.83,1050.5 1080.5,1050.5C 1080.74,1052.4 1081.74,1053.74 1083.5,1054.5C 1083.74,1056.4 1084.74,1057.74 1086.5,1058.5C 1086.74,1060.4 1087.74,1061.74 1089.5,1062.5C 1089.5,1063.17 1089.83,1063.5 1090.5,1063.5C 1090.43,1065.03 1091.09,1066.03 1092.5,1066.5C 1092.5,1067.17 1092.83,1067.5 1093.5,1067.5C 1093.74,1069.4 1094.74,1070.74 1096.5,1071.5C 1096.74,1073.4 1097.74,1074.74 1099.5,1075.5C 1099.74,1077.4 1100.74,1078.74 1102.5,1079.5C 1102.5,1080.17 1102.83,1080.5 1103.5,1080.5C 1103.43,1082.03 1104.09,1083.03 1105.5,1083.5C 1105.5,1084.17 1105.83,1084.5 1106.5,1084.5C 1106.74,1086.4 1107.74,1087.74 1109.5,1088.5C 1109.74,1090.4 1110.74,1091.74 1112.5,1092.5C 1112.74,1094.4 1113.74,1095.74 1115.5,1096.5C 1115.74,1098.4 1116.74,1099.74 1118.5,1100.5C 1118.5,1101.17 1118.83,1101.5 1119.5,1101.5C 1119.74,1103.4 1120.74,1104.74 1122.5,1105.5C 1122.74,1107.4 1123.74,1108.74 1125.5,1109.5C 1125.74,1111.4 1126.74,1112.74 1128.5,1113.5C 1128.74,1115.4 1129.74,1116.74 1131.5,1117.5C 1131.5,1118.17 1131.83,1118.5 1132.5,1118.5C 1131.8,1120.72 1130.46,1122.55 1128.5,1124C 1012.18,1212.63 896.183,1301.46 780.5,1390.5C 758.549,1406.13 737.216,1422.46 716.5,1439.5C 601.818,1526.18 487.485,1613.34 373.5,1701C 372.833,1701.67 372.167,1701.67 371.5,1701C 368.287,1695.7 364.287,1691.2 359.5,1687.5C 359.649,1686.45 359.483,1685.45 359,1684.5C 329.585,1646.76 300.585,1608.76 272,1570.5C 269.91,1567.57 267.41,1565.24 264.5,1563.5C 264.715,1561.82 264.048,1560.82 262.5,1560.5C 262.046,1557.86 260.879,1555.53 259,1553.5C 211.348,1492.19 164.182,1430.53 117.5,1368.5C 196.044,1308.4 274.377,1248.07 352.5,1187.5C 394.049,1156.89 435.049,1125.56 475.5,1093.5C 529.457,1052.88 583.123,1011.88 636.5,970.5C 669.741,946.26 702.408,921.26 734.5,895.5C 736.404,895.262 737.738,894.262 738.5,892.5C 741.792,890.542 744.792,888.209 747.5,885.5C 749.404,885.262 750.738,884.262 751.5,882.5C 753.404,882.262 754.738,881.262 755.5,879.5C 760.383,876.891 764.716,873.557 768.5,869.5C 770.404,869.262 771.738,868.262 772.5,866.5C 774.749,865.92 776.415,864.587 777.5,862.5C 779.027,862.573 780.027,861.906 780.5,860.5C 780.5,860.167 780.5,859.833 780.5,859.5C 782.38,859.771 783.713,859.104 784.5,857.5C 785.167,857.5 785.5,857.167 785.5,856.5C 787.404,856.262 788.738,855.262 789.5,853.5C 791.404,853.262 792.738,852.262 793.5,850.5C 794.167,850.5 794.5,850.167 794.5,849.5C 796.027,849.573 797.027,848.906 797.5,847.5C 798.167,847.5 798.5,847.167 798.5,846.5C 800.027,846.573 801.027,845.906 801.5,844.5C 802.167,844.5 802.5,844.167 802.5,843.5C 804.404,843.262 805.738,842.262 806.5,840.5C 808.404,840.262 809.738,839.262 810.5,837.5C 811.167,837.5 811.5,837.167 811.5,836.5C 813.027,836.573 814.027,835.906 814.5,834.5C 817.81,832.518 820.81,830.185 823.5,827.5C 825.404,827.262 826.738,826.262 827.5,824.5C 828.167,824.5 828.5,824.167 828.5,823.5C 830.027,823.573 831.027,822.906 831.5,821.5C 832.167,821.5 832.5,821.167 832.5,820.5C 834.027,820.573 835.027,819.906 835.5,818.5C 836.167,818.5 836.5,818.167 836.5,817.5C 838.404,817.262 839.738,816.262 840.5,814.5C 842.404,814.262 843.738,813.262 844.5,811.5C 846.404,811.262 847.738,810.262 848.5,808.5C 849.167,808.5 849.5,808.167 849.5,807.5C 851.027,807.573 852.027,806.906 852.5,805.5C 853.167,805.5 853.5,805.167 853.5,804.5C 855.404,804.262 856.738,803.262 857.5,801.5C 859.404,801.262 860.738,800.262 861.5,798.5C 863.404,798.262 864.738,797.262 865.5,795.5C 866.167,795.5 866.5,795.167 866.5,794.5C 868.027,794.573 869.027,793.906 869.5,792.5C 870.167,792.5 870.5,792.167 870.5,791.5C 872.404,791.262 873.738,790.262 874.5,788.5C 875.583,788.461 876.583,788.127 877.5,787.5C 878.852,788.524 880.185,789.524 881.5,790.5 Z"/></g>
<g><path style="opacity:1" fill="#161411" d="M 1254.5,775.5 C 1256.24,776.641 1257.24,778.308 1257.5,780.5C 1254.97,783.799 1255.14,786.799 1258,789.5C 1259.96,788.547 1261.62,787.213 1263,785.5C 1263.71,786.381 1264.54,787.047 1265.5,787.5C 1265.5,788.167 1265.5,788.833 1265.5,789.5C 1262.9,788.6 1260.57,789.267 1258.5,791.5C 1253.47,788.637 1252.47,784.803 1255.5,780C 1255.23,778.467 1254.89,776.967 1254.5,775.5 Z"/></g>
<g><path style="opacity:1" fill="#f5d7ba" d="M 1265.5,787.5 C 1266.5,788.167 1267.5,788.833 1268.5,789.5C 1268.74,791.404 1269.74,792.738 1271.5,793.5C 1271.74,795.404 1272.74,796.738 1274.5,797.5C 1274.74,799.404 1275.74,800.738 1277.5,801.5C 1277.74,803.404 1278.74,804.738 1280.5,805.5C 1280.74,807.404 1281.74,808.738 1283.5,809.5C 1283.43,811.027 1284.09,812.027 1285.5,812.5C 1285.99,814.819 1286.99,816.819 1288.5,818.5C 1290.16,823.197 1289.83,827.697 1287.5,832C 1283.15,835.692 1278.31,838.526 1273,840.5C 1269.18,839.506 1265.68,837.839 1262.5,835.5C 1252.82,843.851 1245.32,853.851 1240,865.5C 1238.03,871.696 1236.69,878.029 1236,884.5C 1235.62,883.944 1235.12,883.611 1234.5,883.5C 1233.66,883.158 1233.33,882.492 1233.5,881.5C 1229.96,870.305 1231.13,859.638 1237,849.5C 1242.83,842.333 1248.67,835.167 1254.5,828C 1253.96,827.283 1253.29,826.783 1252.5,826.5C 1251.49,824.661 1249.99,823.328 1248,822.5C 1239.53,828.648 1231.36,835.148 1223.5,842C 1223.95,843.285 1224.62,844.452 1225.5,845.5C 1225.04,846.298 1224.38,846.631 1223.5,846.5C 1223.26,844.596 1222.26,843.262 1220.5,842.5C 1220.26,840.596 1219.26,839.262 1217.5,838.5C 1217.26,836.596 1216.26,835.262 1214.5,834.5C 1214.26,832.596 1213.26,831.262 1211.5,830.5C 1210.21,825.585 1211.21,825.419 1214.5,830C 1215.17,830.667 1215.83,830.667 1216.5,830C 1232.5,818 1248.5,806 1264.5,794C 1266.47,792.653 1266.8,791.153 1265.5,789.5C 1265.5,788.833 1265.5,788.167 1265.5,787.5 Z"/></g>
<g><path style="opacity:1" fill="#2f2a25" d="M 1265.5,785.5 C 1267.26,786.262 1268.26,787.596 1268.5,789.5C 1267.5,788.833 1266.5,788.167 1265.5,787.5C 1265.5,786.833 1265.5,786.167 1265.5,785.5 Z"/></g>
<g><path style="opacity:1" fill="#403950" d="M 874.5,788.5 C 873.738,790.262 872.404,791.262 870.5,791.5C 870.5,791.167 870.5,790.833 870.5,790.5C 871.605,789.4 872.938,788.733 874.5,788.5 Z"/></g>
<g><path style="opacity:1" fill="#110f0d" d="M 1187.5,793.5 C 1185.8,791.871 1184.8,792.204 1184.5,794.5C 1181.81,792.775 1182.15,791.442 1185.5,790.5C 1186.92,791.005 1187.59,792.005 1187.5,793.5 Z"/></g>
<g><path style="opacity:1" fill="#2f2a25" d="M 1268.5,789.5 C 1270.26,790.262 1271.26,791.596 1271.5,793.5C 1269.74,792.738 1268.74,791.404 1268.5,789.5 Z"/></g>
<g><path style="opacity:1" fill="#3d384b" d="M 869.5,792.5 C 869.027,793.906 868.027,794.573 866.5,794.5C 866.973,793.094 867.973,792.427 869.5,792.5 Z"/></g>
<g><path style="opacity:0.984" fill="#443b46" d="M 885.5,795.5 C 887.262,796.262 888.262,797.596 888.5,799.5C 886.738,798.738 885.738,797.404 885.5,795.5 Z"/></g>
<g><path style="opacity:0.967" fill="#9a6a4e" d="M 876.5,781.5 C 896.519,806.858 916.185,832.525 935.5,858.5C 936.167,860.167 936.833,861.833 937.5,863.5C 933.443,859.716 930.109,855.383 927.5,850.5C 927.262,848.596 926.262,847.262 924.5,846.5C 921.815,843.81 919.482,840.81 917.5,837.5C 917.262,835.596 916.262,834.262 914.5,833.5C 914.262,831.596 913.262,830.262 911.5,829.5C 907.443,825.716 904.109,821.383 901.5,816.5C 901.262,814.596 900.262,813.262 898.5,812.5C 894.443,808.716 891.109,804.383 888.5,799.5C 888.262,797.596 887.262,796.262 885.5,795.5C 883.457,794.421 882.124,792.754 881.5,790.5C 880.551,788.223 879.218,786.223 877.5,784.5C 876.89,783.609 876.557,782.609 876.5,781.5 Z"/></g>
<g><path style="opacity:1" fill="#110f0d" d="M 1184.5,794.5 C 1185.91,794.973 1186.57,795.973 1186.5,797.5C 1185.09,797.027 1184.43,796.027 1184.5,794.5 Z"/></g>
<g><path style="opacity:1" fill="#2f2a25" d="M 1271.5,793.5 C 1273.26,794.262 1274.26,795.596 1274.5,797.5C 1272.74,796.738 1271.74,795.404 1271.5,793.5 Z"/></g>
<g><path style="opacity:0.996" fill="#3d384b" d="M 865.5,795.5 C 864.738,797.262 863.404,798.262 861.5,798.5C 862.262,796.738 863.596,795.738 865.5,795.5 Z"/></g>
<g><path style="opacity:1" fill="#302b25" d="M 1186.5,797.5 C 1188.26,798.262 1189.26,799.596 1189.5,801.5C 1187.74,800.738 1186.74,799.404 1186.5,797.5 Z"/></g>
<g><path style="opacity:1" fill="#2f2a25" d="M 1274.5,797.5 C 1276.26,798.262 1277.26,799.596 1277.5,801.5C 1275.74,800.738 1274.74,799.404 1274.5,797.5 Z"/></g>
<g><path style="opacity:0.99" fill="#3e394d" d="M 861.5,798.5 C 860.738,800.262 859.404,801.262 857.5,801.5C 858.262,799.738 859.596,798.738 861.5,798.5 Z"/></g>
<g><path style="opacity:1" fill="#3f394f" d="M 857.5,801.5 C 856.738,803.262 855.404,804.262 853.5,804.5C 854.262,802.738 855.596,801.738 857.5,801.5 Z"/></g>
<g><path style="opacity:1" fill="#302b25" d="M 1189.5,801.5 C 1191.26,802.262 1192.26,803.596 1192.5,805.5C 1190.74,804.738 1189.74,803.404 1189.5,801.5 Z"/></g>
<g><path style="opacity:1" fill="#1a1715" d="M 1276.5,804.5 C 1268.38,810.115 1260.38,815.949 1252.5,822C 1253.38,822.708 1254.05,823.542 1254.5,824.5C 1251.51,824.052 1250.51,822.552 1251.5,820C 1259.17,814.333 1266.83,808.667 1274.5,803C 1275.82,802.472 1276.48,802.972 1276.5,804.5 Z"/></g>
<g><path style="opacity:1" fill="#2f2a25" d="M 1277.5,801.5 C 1279.26,802.262 1280.26,803.596 1280.5,805.5C 1278.74,804.738 1277.74,803.404 1277.5,801.5 Z"/></g>
<g><path style="opacity:1" fill="#f6d8ba" d="M 1276.5,804.5 C 1276.74,806.404 1277.74,807.738 1279.5,808.5C 1279.43,810.027 1280.09,811.027 1281.5,811.5C 1282.97,813.927 1282.81,816.26 1281,818.5C 1276.17,822 1271.33,825.5 1266.5,829C 1264.5,829.667 1262.5,829.667 1260.5,829C 1258.89,826.873 1256.89,825.373 1254.5,824.5C 1254.05,823.542 1253.38,822.708 1252.5,822C 1260.38,815.949 1268.38,810.115 1276.5,804.5 Z"/></g>
<g><path style="opacity:1" fill="#1a1815" d="M 1276.5,804.5 C 1278.26,805.262 1279.26,806.596 1279.5,808.5C 1277.74,807.738 1276.74,806.404 1276.5,804.5 Z"/></g>
<g><path style="opacity:1" fill="#3d384b" d="M 852.5,805.5 C 852.027,806.906 851.027,807.573 849.5,807.5C 849.973,806.094 850.973,805.427 852.5,805.5 Z"/></g>
<g><path style="opacity:1" fill="#302b25" d="M 1192.5,805.5 C 1194.26,806.262 1195.26,807.596 1195.5,809.5C 1193.74,808.738 1192.74,807.404 1192.5,805.5 Z"/></g>
<g><path style="opacity:1" fill="#2f2a25" d="M 1280.5,805.5 C 1282.26,806.262 1283.26,807.596 1283.5,809.5C 1281.74,808.738 1280.74,807.404 1280.5,805.5 Z"/></g>
<g><path style="opacity:1" fill="#0c0b09" d="M 1279.5,808.5 C 1280.91,808.973 1281.57,809.973 1281.5,811.5C 1280.09,811.027 1279.43,810.027 1279.5,808.5 Z"/></g>
<g><path style="opacity:0.996" fill="#3d384b" d="M 848.5,808.5 C 847.738,810.262 846.404,811.262 844.5,811.5C 845.262,809.738 846.596,808.738 848.5,808.5 Z"/></g>
<g><path style="opacity:1" fill="#1f1c19" d="M 1195.5,809.5 C 1196.81,810.476 1198.15,811.476 1199.5,812.5C 1200.09,811.767 1200.09,810.767 1199.5,809.5C 1203.26,811.316 1203.26,812.983 1199.5,814.5C 1197.39,813.395 1196.06,811.729 1195.5,809.5 Z"/></g>
<g><path style="opacity:1" fill="#161412" d="M 1265.5,789.5 C 1266.8,791.153 1266.47,792.653 1264.5,794C 1248.5,806 1232.5,818 1216.5,830C 1215.83,830.667 1215.17,830.667 1214.5,830C 1211.21,825.419 1210.21,825.585 1211.5,830.5C 1208.73,829.362 1208.07,827.528 1209.5,825C 1211.75,825.195 1213.58,826.362 1215,828.5C 1232.42,816.065 1249.26,803.065 1265.5,789.5 Z"/></g>
<g><path style="opacity:1" fill="#1c1a17" d="M 1283.5,809.5 C 1284.91,809.973 1285.57,810.973 1285.5,812.5C 1284.09,812.027 1283.43,811.027 1283.5,809.5 Z"/></g>
<g><path style="opacity:0.984" fill="#443b46" d="M 898.5,812.5 C 900.262,813.262 901.262,814.596 901.5,816.5C 899.738,815.738 898.738,814.404 898.5,812.5 Z"/></g>
<g><path style="opacity:0.99" fill="#3e384d" d="M 844.5,811.5 C 843.738,813.262 842.404,814.262 840.5,814.5C 841.262,812.738 842.596,811.738 844.5,811.5 Z"/></g>
<g><path style="opacity:1" fill="#3f394f" d="M 840.5,814.5 C 839.738,816.262 838.404,817.262 836.5,817.5C 837.262,815.738 838.596,814.738 840.5,814.5 Z"/></g>
<g><path style="opacity:1" fill="#151310" d="M 1285.5,812.5 C 1287.54,813.911 1288.54,815.911 1288.5,818.5C 1286.99,816.819 1285.99,814.819 1285.5,812.5 Z"/></g>
<g><path style="opacity:0.788" fill="#e09453" d="M 1249.5,729.5 C 1282.06,771.615 1314.4,813.948 1346.5,856.5C 1346.5,857.167 1346.5,857.833 1346.5,858.5C 1313.44,816.715 1281.11,774.382 1249.5,731.5C 1249.5,730.833 1249.5,730.167 1249.5,729.5 Z"/></g>
<g><path style="opacity:1" fill="#151311" d="M 1281.5,811.5 C 1282.12,811.611 1282.62,811.944 1283,812.5C 1283.67,814.5 1283.67,816.5 1283,818.5C 1277.95,823.274 1272.45,827.44 1266.5,831C 1261.01,831.7 1257.01,829.533 1254.5,824.5C 1256.89,825.373 1258.89,826.873 1260.5,829C 1262.5,829.667 1264.5,829.667 1266.5,829C 1271.33,825.5 1276.17,822 1281,818.5C 1282.81,816.26 1282.97,813.927 1281.5,811.5 Z"/></g>
<g><path style="opacity:0.804" fill="#624f92" d="M 358.5,768.5 C 358.5,769.167 358.833,769.5 359.5,769.5C 323.202,797.982 286.535,825.982 249.5,853.5C 249.5,853.167 249.5,852.833 249.5,852.5C 285.253,823.785 321.587,795.785 358.5,768.5 Z"/></g>
<g><path style="opacity:1" fill="#3d374a" d="M 835.5,818.5 C 835.027,819.906 834.027,820.573 832.5,820.5C 832.973,819.094 833.973,818.427 835.5,818.5 Z"/></g>
<g><path style="opacity:1" fill="#3e394c" d="M 831.5,821.5 C 831.027,822.906 830.027,823.573 828.5,823.5C 828.973,822.094 829.973,821.427 831.5,821.5 Z"/></g>
<g><path style="opacity:1" fill="#191614" d="M 1252.5,826.5 C 1250.98,826.489 1249.82,825.823 1249,824.5C 1241.33,830.167 1233.67,835.833 1226,841.5C 1225.86,843.256 1226.36,844.922 1227.5,846.5C 1225.77,850.308 1224.44,850.308 1223.5,846.5C 1224.38,846.631 1225.04,846.298 1225.5,845.5C 1224.62,844.452 1223.95,843.285 1223.5,842C 1231.36,835.148 1239.53,828.648 1248,822.5C 1249.99,823.328 1251.49,824.661 1252.5,826.5 Z"/></g>
<g><path style="opacity:1" fill="#221f1c" d="M 1297.5,828.5 C 1295.8,827.34 1295.13,828.007 1295.5,830.5C 1291.74,828.684 1291.74,827.017 1295.5,825.5C 1296.92,826.005 1297.59,827.005 1297.5,828.5 Z"/></g>
<g><path style="opacity:0.99" fill="#3e384c" d="M 827.5,824.5 C 826.738,826.262 825.404,827.262 823.5,827.5C 824.262,825.738 825.596,824.738 827.5,824.5 Z"/></g>
<g><path style="opacity:1" fill="#f4d7b9" d="M 1297.5,828.5 C 1297.74,830.404 1298.74,831.738 1300.5,832.5C 1300.74,834.404 1301.74,835.738 1303.5,836.5C 1303.74,838.404 1304.74,839.738 1306.5,840.5C 1306.74,842.404 1307.74,843.738 1309.5,844.5C 1310.52,848.151 1309.52,848.484 1306.5,845.5C 1306.48,843.972 1305.82,843.472 1304.5,844C 1287.5,857 1270.5,870 1253.5,883C 1254.04,883.717 1254.71,884.217 1255.5,884.5C 1256.52,888.151 1255.52,888.484 1252.5,885.5C 1252.26,883.596 1251.26,882.262 1249.5,881.5C 1249.26,879.596 1248.26,878.262 1246.5,877.5C 1246.26,875.596 1245.26,874.262 1243.5,873.5C 1243.57,871.973 1242.91,870.973 1241.5,870.5C 1240.5,868.167 1241.17,867.5 1243.5,868.5C 1244.19,871.838 1245.86,872.338 1248.5,870C 1265,857.661 1281.33,845.161 1297.5,832.5C 1297.14,831.478 1296.48,830.811 1295.5,830.5C 1295.13,828.007 1295.8,827.34 1297.5,828.5 Z"/></g>
<g><path style="opacity:0.984" fill="#453b46" d="M 911.5,829.5 C 913.262,830.262 914.262,831.596 914.5,833.5C 912.738,832.738 911.738,831.404 911.5,829.5 Z"/></g>
<g><path style="opacity:1" fill="#1d1a18" d="M 1297.5,828.5 C 1299.26,829.262 1300.26,830.596 1300.5,832.5C 1298.74,831.738 1297.74,830.404 1297.5,828.5 Z"/></g>
<g><path style="opacity:1" fill="#1b1916" d="M 1211.5,830.5 C 1213.26,831.262 1214.26,832.596 1214.5,834.5C 1212.74,833.738 1211.74,832.404 1211.5,830.5 Z"/></g>
<g><path style="opacity:0.992" fill="#423a45" d="M 914.5,833.5 C 916.262,834.262 917.262,835.596 917.5,837.5C 915.738,836.738 914.738,835.404 914.5,833.5 Z"/></g>
<g><path style="opacity:1" fill="#1d1a18" d="M 1300.5,832.5 C 1302.26,833.262 1303.26,834.596 1303.5,836.5C 1301.74,835.738 1300.74,834.404 1300.5,832.5 Z"/></g>
<g><path style="opacity:1" fill="#3d384b" d="M 814.5,834.5 C 814.027,835.906 813.027,836.573 811.5,836.5C 811.973,835.094 812.973,834.427 814.5,834.5 Z"/></g>
<g><path style="opacity:1" fill="#1b1916" d="M 1214.5,834.5 C 1216.26,835.262 1217.26,836.596 1217.5,838.5C 1215.74,837.738 1214.74,836.404 1214.5,834.5 Z"/></g>
<g><path style="opacity:1" fill="#1d1a18" d="M 1303.5,836.5 C 1305.26,837.262 1306.26,838.596 1306.5,840.5C 1304.74,839.738 1303.74,838.404 1303.5,836.5 Z"/></g>
<g><path style="opacity:0.992" fill="#3e384c" d="M 810.5,837.5 C 809.738,839.262 808.404,840.262 806.5,840.5C 807.262,838.738 808.596,837.738 810.5,837.5 Z"/></g>
<g><path style="opacity:1" fill="#1b1916" d="M 1217.5,838.5 C 1219.26,839.262 1220.26,840.596 1220.5,842.5C 1218.74,841.738 1217.74,840.404 1217.5,838.5 Z"/></g>
<g><path style="opacity:1" fill="#3f394e" d="M 806.5,840.5 C 805.738,842.262 804.404,843.262 802.5,843.5C 803.262,841.738 804.596,840.738 806.5,840.5 Z"/></g>
<g><path style="opacity:1" fill="#1d1a18" d="M 1306.5,840.5 C 1308.26,841.262 1309.26,842.596 1309.5,844.5C 1307.74,843.738 1306.74,842.404 1306.5,840.5 Z"/></g>
<g><path style="opacity:0.992" fill="#8165c8" d="M 870.5,789.5 C 870.5,789.833 870.5,790.167 870.5,790.5C 870.5,790.833 870.5,791.167 870.5,791.5C 870.5,792.167 870.167,792.5 869.5,792.5C 867.973,792.427 866.973,793.094 866.5,794.5C 866.5,795.167 866.167,795.5 865.5,795.5C 863.596,795.738 862.262,796.738 861.5,798.5C 859.596,798.738 858.262,799.738 857.5,801.5C 855.596,801.738 854.262,802.738 853.5,804.5C 853.5,805.167 853.167,805.5 852.5,805.5C 850.973,805.427 849.973,806.094 849.5,807.5C 849.5,808.167 849.167,808.5 848.5,808.5C 846.596,808.738 845.262,809.738 844.5,811.5C 842.596,811.738 841.262,812.738 840.5,814.5C 838.596,814.738 837.262,815.738 836.5,817.5C 836.5,818.167 836.167,818.5 835.5,818.5C 833.973,818.427 832.973,819.094 832.5,820.5C 832.5,821.167 832.167,821.5 831.5,821.5C 829.973,821.427 828.973,822.094 828.5,823.5C 828.5,824.167 828.167,824.5 827.5,824.5C 825.596,824.738 824.262,825.738 823.5,827.5C 820.81,830.185 817.81,832.518 814.5,834.5C 812.973,834.427 811.973,835.094 811.5,836.5C 811.5,837.167 811.167,837.5 810.5,837.5C 808.596,837.738 807.262,838.738 806.5,840.5C 804.596,840.738 803.262,841.738 802.5,843.5C 802.5,844.167 802.167,844.5 801.5,844.5C 799.973,844.427 798.973,845.094 798.5,846.5C 798.5,847.167 798.167,847.5 797.5,847.5C 795.973,847.427 794.973,848.094 794.5,849.5C 794.5,850.167 794.167,850.5 793.5,850.5C 791.596,850.738 790.262,851.738 789.5,853.5C 787.596,853.738 786.262,854.738 785.5,856.5C 785.5,857.167 785.167,857.5 784.5,857.5C 782.847,857.66 781.514,858.326 780.5,859.5C 780.5,859.833 780.5,860.167 780.5,860.5C 778.973,860.427 777.973,861.094 777.5,862.5C 776.415,864.587 774.749,865.92 772.5,866.5C 770.596,866.738 769.262,867.738 768.5,869.5C 766.983,869.511 765.816,870.177 765,871.5C 764.601,871.272 764.435,870.938 764.5,870.5C 799.259,842.74 834.592,815.74 870.5,789.5 Z"/></g>
<g><path style="opacity:1" fill="#1b1916" d="M 1220.5,842.5 C 1222.26,843.262 1223.26,844.596 1223.5,846.5C 1221.74,845.738 1220.74,844.404 1220.5,842.5 Z"/></g>
<g><path style="opacity:1" fill="#13110f" d="M 1306.5,845.5 C 1288.92,857.784 1271.92,870.784 1255.5,884.5C 1254.71,884.217 1254.04,883.717 1253.5,883C 1270.5,870 1287.5,857 1304.5,844C 1305.82,843.472 1306.48,843.972 1306.5,845.5 Z"/></g>
<g><path style="opacity:1" fill="#3c374a" d="M 801.5,844.5 C 801.027,845.906 800.027,846.573 798.5,846.5C 798.973,845.094 799.973,844.427 801.5,844.5 Z"/></g>
<g><path style="opacity:1" fill="#1f1c19" d="M 1309.5,844.5 C 1313.68,847.277 1313.35,848.777 1308.5,849C 1307.18,848.184 1306.51,847.017 1306.5,845.5C 1309.52,848.484 1310.52,848.151 1309.5,844.5 Z"/></g>
<g><path style="opacity:0.984" fill="#453c46" d="M 924.5,846.5 C 926.262,847.262 927.262,848.596 927.5,850.5C 925.738,849.738 924.738,848.404 924.5,846.5 Z"/></g>
<g><path style="opacity:1" fill="#12100e" d="M 1295.5,830.5 C 1296.48,830.811 1297.14,831.478 1297.5,832.5C 1281.33,845.161 1265,857.661 1248.5,870C 1245.86,872.338 1244.19,871.838 1243.5,868.5C 1244.42,869.303 1245.42,869.47 1246.5,869C 1262.17,857.333 1277.83,845.667 1293.5,834C 1294.82,833.184 1295.49,832.017 1295.5,830.5 Z"/></g>
<g><path style="opacity:1" fill="#3d384b" d="M 797.5,847.5 C 797.027,848.906 796.027,849.573 794.5,849.5C 794.973,848.094 795.973,847.427 797.5,847.5 Z"/></g>
<g><path style="opacity:1" fill="#171512" d="M 1252.5,826.5 C 1253.29,826.783 1253.96,827.283 1254.5,828C 1248.67,835.167 1242.83,842.333 1237,849.5C 1231.13,859.638 1229.96,870.305 1233.5,881.5C 1229.18,873.163 1228.68,864.497 1232,855.5C 1233.93,851.241 1236.27,847.241 1239,843.5C 1244.12,838.227 1248.62,832.561 1252.5,826.5 Z"/></g>
<g><path style="opacity:0.994" fill="#3e384c" d="M 793.5,850.5 C 792.738,852.262 791.404,853.262 789.5,853.5C 790.262,851.738 791.596,850.738 793.5,850.5 Z"/></g>
<g><path style="opacity:1" fill="#3e394d" d="M 789.5,853.5 C 788.738,855.262 787.404,856.262 785.5,856.5C 786.262,854.738 787.596,853.738 789.5,853.5 Z"/></g>
<g><path style="opacity:0.961" fill="#3c384b" d="M 784.5,857.5 C 783.713,859.104 782.38,859.771 780.5,859.5C 781.514,858.326 782.847,857.66 784.5,857.5 Z"/></g>
<g><path style="opacity:1" fill="#110f0d" d="M 1288.5,818.5 C 1291.75,822.889 1292.09,827.556 1289.5,832.5C 1285.64,835.528 1281.64,838.361 1277.5,841C 1274.83,841.667 1272.17,841.667 1269.5,841C 1267.14,839.642 1264.81,838.642 1262.5,838C 1253.89,845.602 1247.22,854.602 1242.5,865C 1242.99,866.138 1243.32,867.305 1243.5,868.5C 1241.17,867.5 1240.5,868.167 1241.5,870.5C 1239.93,871.681 1239.1,873.347 1239,875.5C 1238.67,879.5 1238.33,883.5 1238,887.5C 1235.93,886.897 1234.76,885.564 1234.5,883.5C 1235.12,883.611 1235.62,883.944 1236,884.5C 1236.69,878.029 1238.03,871.696 1240,865.5C 1245.32,853.851 1252.82,843.851 1262.5,835.5C 1265.68,837.839 1269.18,839.506 1273,840.5C 1278.31,838.526 1283.15,835.692 1287.5,832C 1289.83,827.697 1290.16,823.197 1288.5,818.5 Z"/></g>
<g><path style="opacity:0.991" fill="#c08051" d="M 935.5,858.5 C 938.516,861.52 941.183,864.854 943.5,868.5C 943.565,868.938 943.399,869.272 943,869.5C 942.292,868.619 941.458,867.953 940.5,867.5C 940.262,865.596 939.262,864.262 937.5,863.5C 936.833,861.833 936.167,860.167 935.5,858.5 Z"/></g>
<g><path style="opacity:1" fill="#3d384b" d="M 780.5,860.5 C 780.027,861.906 779.027,862.573 777.5,862.5C 777.973,861.094 778.973,860.427 780.5,860.5 Z"/></g>
<g><path style="opacity:0.984" fill="#463c46" d="M 937.5,863.5 C 939.262,864.262 940.262,865.596 940.5,867.5C 938.738,866.738 937.738,865.404 937.5,863.5 Z"/></g>
<g><path style="opacity:0.988" fill="#3e394d" d="M 772.5,866.5 C 771.738,868.262 770.404,869.262 768.5,869.5C 769.262,867.738 770.596,866.738 772.5,866.5 Z"/></g>
<g><path style="opacity:1" fill="#110f0d" d="M 1241.5,870.5 C 1242.91,870.973 1243.57,871.973 1243.5,873.5C 1242.09,873.027 1241.43,872.027 1241.5,870.5 Z"/></g>
<g><path style="opacity:1" fill="#302b25" d="M 1243.5,873.5 C 1245.26,874.262 1246.26,875.596 1246.5,877.5C 1244.74,876.738 1243.74,875.404 1243.5,873.5 Z"/></g>
<g><path style="opacity:1" fill="#302b25" d="M 1246.5,877.5 C 1248.26,878.262 1249.26,879.596 1249.5,881.5C 1247.74,880.738 1246.74,879.404 1246.5,877.5 Z"/></g>
<g><path style="opacity:0.984" fill="#463c46" d="M 950.5,880.5 C 952.262,881.262 953.262,882.596 953.5,884.5C 951.738,883.738 950.738,882.404 950.5,880.5 Z"/></g>
<g><path style="opacity:0.988" fill="#3e384c" d="M 755.5,879.5 C 754.738,881.262 753.404,882.262 751.5,882.5C 752.262,880.738 753.596,879.738 755.5,879.5 Z"/></g>
<g><path style="opacity:1" fill="#3f394e" d="M 751.5,882.5 C 750.738,884.262 749.404,885.262 747.5,885.5C 748.262,883.738 749.596,882.738 751.5,882.5 Z"/></g>
<g><path style="opacity:1" fill="#302b25" d="M 1249.5,881.5 C 1251.26,882.262 1252.26,883.596 1252.5,885.5C 1250.74,884.738 1249.74,883.404 1249.5,881.5 Z"/></g>
<g><path style="opacity:0.99" fill="#433b45" d="M 953.5,884.5 C 955.262,885.262 956.262,886.596 956.5,888.5C 954.738,887.738 953.738,886.404 953.5,884.5 Z"/></g>
<g><path style="opacity:1" fill="#1d1a18" d="M 1255.5,884.5 C 1259.18,886.203 1259.35,888.203 1256,890.5C 1254.2,889.211 1253.03,887.544 1252.5,885.5C 1255.52,888.484 1256.52,888.151 1255.5,884.5 Z"/></g>
<g><path style="opacity:1" fill="#413945" d="M 956.5,888.5 C 958.262,889.262 959.262,890.596 959.5,892.5C 957.738,891.738 956.738,890.404 956.5,888.5 Z"/></g>
<g><path style="opacity:0.84" fill="#f19b56" d="M 1346.5,856.5 C 1372.85,890.191 1398.85,924.191 1424.5,958.5C 1424.5,959.167 1424.5,959.833 1424.5,960.5C 1398.02,926.869 1372.02,892.869 1346.5,858.5C 1346.5,857.833 1346.5,857.167 1346.5,856.5 Z"/></g>
<g><path style="opacity:0.988" fill="#3e384c" d="M 738.5,892.5 C 737.738,894.262 736.404,895.262 734.5,895.5C 735.262,893.738 736.596,892.738 738.5,892.5 Z"/></g>
<g><path style="opacity:1" fill="#413945" d="M 960.5,893.5 C 961.906,893.973 962.573,894.973 962.5,896.5C 961.094,896.027 960.427,895.027 960.5,893.5 Z"/></g>
<g><path style="opacity:0.99" fill="#443b46" d="M 966.5,901.5 C 968.262,902.262 969.262,903.596 969.5,905.5C 967.738,904.738 966.738,903.404 966.5,901.5 Z"/></g>
<g><path style="opacity:0.834" fill="#4c4268" d="M 249.5,852.5 C 249.5,852.833 249.5,853.167 249.5,853.5C 212.074,883.26 174.074,912.26 135.5,940.5C 134.833,940.5 134.5,940.167 134.5,939.5C 172.568,910.092 210.902,881.092 249.5,852.5 Z"/></g>
<g><path style="opacity:1" fill="#413a45" d="M 969.5,905.5 C 971.262,906.262 972.262,907.596 972.5,909.5C 970.738,908.738 969.738,907.404 969.5,905.5 Z"/></g>
<g><path style="opacity:0.991" fill="#bb7d51" d="M 940.5,867.5 C 941.458,867.953 942.292,868.619 943,869.5C 943.399,869.272 943.565,868.938 943.5,868.5C 968.316,900.132 992.649,932.132 1016.5,964.5C 1016.5,964.833 1016.5,965.167 1016.5,965.5C 1016.17,965.5 1015.83,965.5 1015.5,965.5C 1014.83,965.5 1014.5,965.167 1014.5,964.5C 1014.57,962.973 1013.91,961.973 1012.5,961.5C 1011.83,961.5 1011.5,961.167 1011.5,960.5C 1011.26,958.596 1010.26,957.262 1008.5,956.5C 1008.26,954.596 1007.26,953.262 1005.5,952.5C 1005.26,950.596 1004.26,949.262 1002.5,948.5C 1001.83,948.5 1001.5,948.167 1001.5,947.5C 1001.57,945.973 1000.91,944.973 999.5,944.5C 998.833,944.5 998.5,944.167 998.5,943.5C 998.262,941.596 997.262,940.262 995.5,939.5C 995.262,937.596 994.262,936.262 992.5,935.5C 992.262,933.596 991.262,932.262 989.5,931.5C 988.833,931.5 988.5,931.167 988.5,930.5C 988.573,928.973 987.906,927.973 986.5,927.5C 985.833,927.5 985.5,927.167 985.5,926.5C 985.262,924.596 984.262,923.262 982.5,922.5C 982.262,920.596 981.262,919.262 979.5,918.5C 979.262,916.596 978.262,915.262 976.5,914.5C 975.833,914.5 975.5,914.167 975.5,913.5C 975.573,911.973 974.906,910.973 973.5,910.5C 972.833,910.5 972.5,910.167 972.5,909.5C 972.262,907.596 971.262,906.262 969.5,905.5C 969.262,903.596 968.262,902.262 966.5,901.5C 964.457,900.421 963.124,898.754 962.5,896.5C 962.573,894.973 961.906,893.973 960.5,893.5C 959.833,893.5 959.5,893.167 959.5,892.5C 959.262,890.596 958.262,889.262 956.5,888.5C 956.262,886.596 955.262,885.262 953.5,884.5C 953.262,882.596 952.262,881.262 950.5,880.5C 946.443,876.716 943.109,872.383 940.5,867.5 Z"/></g>
<g><path style="opacity:1" fill="#413a45" d="M 973.5,910.5 C 974.906,910.973 975.573,911.973 975.5,913.5C 974.094,913.027 973.427,912.027 973.5,910.5 Z"/></g>
<g><path style="opacity:0.978" fill="#463d46" d="M 976.5,914.5 C 978.262,915.262 979.262,916.596 979.5,918.5C 977.738,917.738 976.738,916.404 976.5,914.5 Z"/></g>
<g><path style="opacity:0.99" fill="#443b46" d="M 979.5,918.5 C 981.262,919.262 982.262,920.596 982.5,922.5C 980.738,921.738 979.738,920.404 979.5,918.5 Z"/></g>
<g><path style="opacity:1" fill="#423a45" d="M 982.5,922.5 C 984.262,923.262 985.262,924.596 985.5,926.5C 983.738,925.738 982.738,924.404 982.5,922.5 Z"/></g>
<g><path style="opacity:1" fill="#423a45" d="M 986.5,927.5 C 987.906,927.973 988.573,928.973 988.5,930.5C 987.094,930.027 986.427,929.027 986.5,927.5 Z"/></g>
<g><path style="opacity:1" fill="#473d46" d="M 989.5,931.5 C 991.262,932.262 992.262,933.596 992.5,935.5C 990.738,934.738 989.738,933.404 989.5,931.5 Z"/></g>
<g><path style="opacity:1" fill="#443b46" d="M 992.5,935.5 C 994.262,936.262 995.262,937.596 995.5,939.5C 993.738,938.738 992.738,937.404 992.5,935.5 Z"/></g>
<g><path style="opacity:0.994" fill="#423a45" d="M 995.5,939.5 C 997.262,940.262 998.262,941.596 998.5,943.5C 996.738,942.738 995.738,941.404 995.5,939.5 Z"/></g>
<g><path style="opacity:1" fill="#423a45" d="M 999.5,944.5 C 1000.91,944.973 1001.57,945.973 1001.5,947.5C 1000.09,947.027 999.427,946.027 999.5,944.5 Z"/></g>
<g><path style="opacity:1" fill="#483d46" d="M 1002.5,948.5 C 1004.26,949.262 1005.26,950.596 1005.5,952.5C 1003.74,951.738 1002.74,950.404 1002.5,948.5 Z"/></g>
<g><path style="opacity:0.992" fill="#61508c" d="M 768.5,869.5 C 764.716,873.557 760.383,876.891 755.5,879.5C 753.596,879.738 752.262,880.738 751.5,882.5C 749.596,882.738 748.262,883.738 747.5,885.5C 744.792,888.209 741.792,890.542 738.5,892.5C 736.596,892.738 735.262,893.738 734.5,895.5C 702.408,921.26 669.741,946.26 636.5,970.5C 634.983,970.511 633.816,971.177 633,972.5C 632.601,972.272 632.435,971.938 632.5,971.5C 675.925,937.074 719.925,903.407 764.5,870.5C 764.435,870.938 764.601,871.272 765,871.5C 765.816,870.177 766.983,869.511 768.5,869.5 Z"/></g>
<g><path style="opacity:1" fill="#453b45" d="M 1005.5,952.5 C 1007.26,953.262 1008.26,954.596 1008.5,956.5C 1006.74,955.738 1005.74,954.404 1005.5,952.5 Z"/></g>
<g><path style="opacity:0.994" fill="#423a45" d="M 1008.5,956.5 C 1010.26,957.262 1011.26,958.596 1011.5,960.5C 1009.74,959.738 1008.74,958.404 1008.5,956.5 Z"/></g>
<g><path style="opacity:1" fill="#433a45" d="M 1012.5,961.5 C 1013.91,961.973 1014.57,962.973 1014.5,964.5C 1013.09,964.027 1012.43,963.027 1012.5,961.5 Z"/></g>
<g><path style="opacity:1" fill="#483d46" d="M 1015.5,965.5 C 1015.83,965.5 1016.17,965.5 1016.5,965.5C 1017.6,966.605 1018.27,967.938 1018.5,969.5C 1016.74,968.738 1015.74,967.404 1015.5,965.5 Z"/></g>
<g><path style="opacity:1" fill="#463c46" d="M 1018.5,969.5 C 1020.26,970.262 1021.26,971.596 1021.5,973.5C 1019.74,972.738 1018.74,971.404 1018.5,969.5 Z"/></g>
<g><path style="opacity:0.992" fill="#433a45" d="M 1021.5,973.5 C 1023.26,974.262 1024.26,975.596 1024.5,977.5C 1022.74,976.738 1021.74,975.404 1021.5,973.5 Z"/></g>
<g><path style="opacity:0.981" fill="#d28a53" d="M 1016.5,964.5 C 1047.21,1003.88 1077.54,1043.54 1107.5,1083.5C 1107.5,1083.83 1107.5,1084.17 1107.5,1084.5C 1107.17,1084.5 1106.83,1084.5 1106.5,1084.5C 1105.83,1084.5 1105.5,1084.17 1105.5,1083.5C 1105.57,1081.97 1104.91,1080.97 1103.5,1080.5C 1102.83,1080.5 1102.5,1080.17 1102.5,1079.5C 1102.26,1077.6 1101.26,1076.26 1099.5,1075.5C 1099.26,1073.6 1098.26,1072.26 1096.5,1071.5C 1096.26,1069.6 1095.26,1068.26 1093.5,1067.5C 1092.83,1067.5 1092.5,1067.17 1092.5,1066.5C 1092.57,1064.97 1091.91,1063.97 1090.5,1063.5C 1089.83,1063.5 1089.5,1063.17 1089.5,1062.5C 1089.26,1060.6 1088.26,1059.26 1086.5,1058.5C 1086.26,1056.6 1085.26,1055.26 1083.5,1054.5C 1083.26,1052.6 1082.26,1051.26 1080.5,1050.5C 1079.83,1050.5 1079.5,1050.17 1079.5,1049.5C 1079.57,1047.97 1078.91,1046.97 1077.5,1046.5C 1076.83,1046.5 1076.5,1046.17 1076.5,1045.5C 1076.26,1043.6 1075.26,1042.26 1073.5,1041.5C 1073.26,1039.6 1072.26,1038.26 1070.5,1037.5C 1070.26,1035.6 1069.26,1034.26 1067.5,1033.5C 1066.83,1033.5 1066.5,1033.17 1066.5,1032.5C 1066.57,1030.97 1065.91,1029.97 1064.5,1029.5C 1063.83,1029.5 1063.5,1029.17 1063.5,1028.5C 1063.26,1026.6 1062.26,1025.26 1060.5,1024.5C 1060.26,1022.6 1059.26,1021.26 1057.5,1020.5C 1057.26,1018.6 1056.26,1017.26 1054.5,1016.5C 1053.83,1016.5 1053.5,1016.17 1053.5,1015.5C 1053.57,1013.97 1052.91,1012.97 1051.5,1012.5C 1050.83,1012.5 1050.5,1012.17 1050.5,1011.5C 1050.26,1009.6 1049.26,1008.26 1047.5,1007.5C 1047.26,1005.6 1046.26,1004.26 1044.5,1003.5C 1044.26,1001.6 1043.26,1000.26 1041.5,999.5C 1040.83,999.5 1040.5,999.167 1040.5,998.5C 1040.57,996.973 1039.91,995.973 1038.5,995.5C 1037.83,995.5 1037.5,995.167 1037.5,994.5C 1037.26,992.596 1036.26,991.262 1034.5,990.5C 1034.26,988.596 1033.26,987.262 1031.5,986.5C 1031.26,984.596 1030.26,983.262 1028.5,982.5C 1027.83,982.5 1027.5,982.167 1027.5,981.5C 1027.57,979.973 1026.91,978.973 1025.5,978.5C 1024.83,978.5 1024.5,978.167 1024.5,977.5C 1024.26,975.596 1023.26,974.262 1021.5,973.5C 1021.26,971.596 1020.26,970.262 1018.5,969.5C 1018.27,967.938 1017.6,966.605 1016.5,965.5C 1016.5,965.167 1016.5,964.833 1016.5,964.5 Z"/></g>
<g><path style="opacity:1" fill="#433b45" d="M 1025.5,978.5 C 1026.91,978.973 1027.57,979.973 1027.5,981.5C 1026.09,981.027 1025.43,980.027 1025.5,978.5 Z"/></g>
<g><path style="opacity:1" fill="#493e46" d="M 1028.5,982.5 C 1030.26,983.262 1031.26,984.596 1031.5,986.5C 1029.74,985.738 1028.74,984.404 1028.5,982.5 Z"/></g>
<g><path style="opacity:0.984" fill="#463c46" d="M 1031.5,986.5 C 1033.26,987.262 1034.26,988.596 1034.5,990.5C 1032.74,989.738 1031.74,988.404 1031.5,986.5 Z"/></g>
<g><path style="opacity:0.791" fill="#3c3749" d="M 134.5,939.5 C 134.5,940.167 134.833,940.5 135.5,940.5C 102.894,966.802 69.5606,992.135 35.5,1016.5C 37.9688,1013.24 40.9688,1010.4 44.5,1008C 74.6607,985.334 104.661,962.501 134.5,939.5 Z"/></g>
<g><path style="opacity:0.992" fill="#433a45" d="M 1034.5,990.5 C 1036.26,991.262 1037.26,992.596 1037.5,994.5C 1035.74,993.738 1034.74,992.404 1034.5,990.5 Z"/></g>
<g><path style="opacity:1" fill="#443b45" d="M 1038.5,995.5 C 1039.91,995.973 1040.57,996.973 1040.5,998.5C 1039.09,998.027 1038.43,997.027 1038.5,995.5 Z"/></g>
<g><path style="opacity:1" fill="#493e46" d="M 1041.5,999.5 C 1043.26,1000.26 1044.26,1001.6 1044.5,1003.5C 1042.74,1002.74 1041.74,1001.4 1041.5,999.5 Z"/></g>
<g><path style="opacity:0.984" fill="#463c46" d="M 1044.5,1003.5 C 1046.26,1004.26 1047.26,1005.6 1047.5,1007.5C 1045.74,1006.74 1044.74,1005.4 1044.5,1003.5 Z"/></g>
<g><path style="opacity:0.992" fill="#443b45" d="M 1047.5,1007.5 C 1049.26,1008.26 1050.26,1009.6 1050.5,1011.5C 1048.74,1010.74 1047.74,1009.4 1047.5,1007.5 Z"/></g>
<g><path style="opacity:1" fill="#443b45" d="M 1051.5,1012.5 C 1052.91,1012.97 1053.57,1013.97 1053.5,1015.5C 1052.09,1015.03 1051.43,1014.03 1051.5,1012.5 Z"/></g>
<g><path style="opacity:1" fill="#4a3e46" d="M 1054.5,1016.5 C 1056.26,1017.26 1057.26,1018.6 1057.5,1020.5C 1055.74,1019.74 1054.74,1018.4 1054.5,1016.5 Z"/></g>
<g><path style="opacity:1" fill="#463c46" d="M 1057.5,1020.5 C 1059.26,1021.26 1060.26,1022.6 1060.5,1024.5C 1058.74,1023.74 1057.74,1022.4 1057.5,1020.5 Z"/></g>
<g><path style="opacity:0.992" fill="#443b45" d="M 1060.5,1024.5 C 1062.26,1025.26 1063.26,1026.6 1063.5,1028.5C 1061.74,1027.74 1060.74,1026.4 1060.5,1024.5 Z"/></g>
<g><path style="opacity:1" fill="#453b46" d="M 1064.5,1029.5 C 1065.91,1029.97 1066.57,1030.97 1066.5,1032.5C 1065.09,1032.03 1064.43,1031.03 1064.5,1029.5 Z"/></g>
<g><path style="opacity:1" fill="#4a3e46" d="M 1067.5,1033.5 C 1069.26,1034.26 1070.26,1035.6 1070.5,1037.5C 1068.74,1036.74 1067.74,1035.4 1067.5,1033.5 Z"/></g>
<g><path style="opacity:1" fill="#473c46" d="M 1070.5,1037.5 C 1072.26,1038.26 1073.26,1039.6 1073.5,1041.5C 1071.74,1040.74 1070.74,1039.4 1070.5,1037.5 Z"/></g>
<g><path style="opacity:0.989" fill="#524671" d="M 636.5,970.5 C 583.123,1011.88 529.457,1052.88 475.5,1093.5C 473.833,1094.17 472.167,1094.83 470.5,1095.5C 524.131,1053.68 578.131,1012.35 632.5,971.5C 632.435,971.938 632.601,972.272 633,972.5C 633.816,971.177 634.983,970.511 636.5,970.5 Z"/></g>
<g><path style="opacity:0.99" fill="#443b45" d="M 1073.5,1041.5 C 1075.26,1042.26 1076.26,1043.6 1076.5,1045.5C 1074.74,1044.74 1073.74,1043.4 1073.5,1041.5 Z"/></g>
<g><path style="opacity:1" fill="#453b46" d="M 1077.5,1046.5 C 1078.91,1046.97 1079.57,1047.97 1079.5,1049.5C 1078.09,1049.03 1077.43,1048.03 1077.5,1046.5 Z"/></g>
<g><path style="opacity:1" fill="#4b3e46" d="M 1080.5,1050.5 C 1082.26,1051.26 1083.26,1052.6 1083.5,1054.5C 1081.74,1053.74 1080.74,1052.4 1080.5,1050.5 Z"/></g>
<g><path style="opacity:1" fill="#473d46" d="M 1083.5,1054.5 C 1085.26,1055.26 1086.26,1056.6 1086.5,1058.5C 1084.74,1057.74 1083.74,1056.4 1083.5,1054.5 Z"/></g>
<g><path style="opacity:0.99" fill="#453c45" d="M 1086.5,1058.5 C 1088.26,1059.26 1089.26,1060.6 1089.5,1062.5C 1087.74,1061.74 1086.74,1060.4 1086.5,1058.5 Z"/></g>
<g><path style="opacity:1" fill="#453b46" d="M 1090.5,1063.5 C 1091.91,1063.97 1092.57,1064.97 1092.5,1066.5C 1091.09,1066.03 1090.43,1065.03 1090.5,1063.5 Z"/></g>
<g><path style="opacity:1" fill="#4c3f46" d="M 1093.5,1067.5 C 1095.26,1068.26 1096.26,1069.6 1096.5,1071.5C 1094.74,1070.74 1093.74,1069.4 1093.5,1067.5 Z"/></g>
<g><path style="opacity:1" fill="#483d46" d="M 1096.5,1071.5 C 1098.26,1072.26 1099.26,1073.6 1099.5,1075.5C 1097.74,1074.74 1096.74,1073.4 1096.5,1071.5 Z"/></g>
<g><path style="opacity:0.99" fill="#453b46" d="M 1099.5,1075.5 C 1101.26,1076.26 1102.26,1077.6 1102.5,1079.5C 1100.74,1078.74 1099.74,1077.4 1099.5,1075.5 Z"/></g>
<g><path style="opacity:1" fill="#453c46" d="M 1103.5,1080.5 C 1104.91,1080.97 1105.57,1081.97 1105.5,1083.5C 1104.09,1083.03 1103.43,1082.03 1103.5,1080.5 Z"/></g>
<g><path style="opacity:1" fill="#4c3f47" d="M 1106.5,1084.5 C 1106.83,1084.5 1107.17,1084.5 1107.5,1084.5C 1108.6,1085.6 1109.27,1086.94 1109.5,1088.5C 1107.74,1087.74 1106.74,1086.4 1106.5,1084.5 Z"/></g>
<g><path style="opacity:1" fill="#483d46" d="M 1109.5,1088.5 C 1111.26,1089.26 1112.26,1090.6 1112.5,1092.5C 1110.74,1091.74 1109.74,1090.4 1109.5,1088.5 Z"/></g>
<g><path style="opacity:0.99" fill="#463b46" d="M 1112.5,1092.5 C 1114.26,1093.26 1115.26,1094.6 1115.5,1096.5C 1113.74,1095.74 1112.74,1094.4 1112.5,1092.5 Z"/></g>
<g><path style="opacity:1" fill="#433a45" d="M 1115.5,1096.5 C 1117.26,1097.26 1118.26,1098.6 1118.5,1100.5C 1116.74,1099.74 1115.74,1098.4 1115.5,1096.5 Z"/></g>
<g><path style="opacity:1" fill="#4d4046" d="M 1119.5,1101.5 C 1121.26,1102.26 1122.26,1103.6 1122.5,1105.5C 1120.74,1104.74 1119.74,1103.4 1119.5,1101.5 Z"/></g>
<g><path style="opacity:1" fill="#493e46" d="M 1122.5,1105.5 C 1124.26,1106.26 1125.26,1107.6 1125.5,1109.5C 1123.74,1108.74 1122.74,1107.4 1122.5,1105.5 Z"/></g>
<g><path style="opacity:0.99" fill="#463c46" d="M 1125.5,1109.5 C 1127.26,1110.26 1128.26,1111.6 1128.5,1113.5C 1126.74,1112.74 1125.74,1111.4 1125.5,1109.5 Z"/></g>
<g><path style="opacity:1" fill="#433b45" d="M 1128.5,1113.5 C 1130.26,1114.26 1131.26,1115.6 1131.5,1117.5C 1129.74,1116.74 1128.74,1115.4 1128.5,1113.5 Z"/></g>
<g><path style="opacity:0.872" fill="#fea256" d="M 1424.5,958.5 C 1457.98,1002.1 1491.48,1045.76 1525,1089.5C 1525.67,1091.17 1525.67,1092.83 1525,1094.5C 1438.67,1160.5 1352.33,1226.5 1266,1292.5C 1222.15,1235.43 1178.31,1178.43 1134.5,1121.5C 1134.57,1119.97 1133.91,1118.97 1132.5,1118.5C 1131.83,1118.5 1131.5,1118.17 1131.5,1117.5C 1131.26,1115.6 1130.26,1114.26 1128.5,1113.5C 1128.26,1111.6 1127.26,1110.26 1125.5,1109.5C 1125.26,1107.6 1124.26,1106.26 1122.5,1105.5C 1122.26,1103.6 1121.26,1102.26 1119.5,1101.5C 1118.83,1101.5 1118.5,1101.17 1118.5,1100.5C 1118.26,1098.6 1117.26,1097.26 1115.5,1096.5C 1115.26,1094.6 1114.26,1093.26 1112.5,1092.5C 1112.26,1090.6 1111.26,1089.26 1109.5,1088.5C 1109.27,1086.94 1108.6,1085.6 1107.5,1084.5C 1107.5,1084.17 1107.5,1083.83 1107.5,1083.5C 1160.48,1152.15 1213.48,1220.81 1266.5,1289.5C 1352.64,1223.86 1438.64,1158.02 1524.5,1092C 1490.54,1048.56 1457.21,1004.72 1424.5,960.5C 1424.5,959.833 1424.5,959.167 1424.5,958.5 Z"/></g>
<g><path style="opacity:0.938" fill="#413b53" d="M 475.5,1093.5 C 435.049,1125.56 394.049,1156.89 352.5,1187.5C 351.833,1187.5 351.167,1187.5 350.5,1187.5C 390.131,1156.35 430.131,1125.68 470.5,1095.5C 472.167,1094.83 473.833,1094.17 475.5,1093.5 Z"/></g>
<g><path style="opacity:0.824" fill="#393445" d="M 1132.5,1118.5 C 1133.91,1118.97 1134.57,1119.97 1134.5,1121.5C 1017.38,1210.78 900.376,1300.28 783.5,1390C 782.552,1390.48 781.552,1390.65 780.5,1390.5C 896.183,1301.46 1012.18,1212.63 1128.5,1124C 1130.46,1122.55 1131.8,1120.72 1132.5,1118.5 Z"/></g>
<g><path style="opacity:0.805" fill="#393544" d="M 350.5,1187.5 C 351.167,1187.5 351.833,1187.5 352.5,1187.5C 274.377,1248.07 196.044,1308.4 117.5,1368.5C 164.182,1430.53 211.348,1492.19 259,1553.5C 260.879,1555.53 262.046,1557.86 262.5,1560.5C 186.09,1461.99 110.424,1362.99 35.5,1263.5C 36.4959,1263.41 37.3292,1263.75 38,1264.5C 62.2428,1295.99 86.2428,1327.65 110,1359.5C 112.021,1361.6 114.021,1363.6 116,1365.5C 194.051,1305.94 272.218,1246.61 350.5,1187.5 Z"/></g>
<g><path style="opacity:0.873" fill="#393545" d="M 780.5,1390.5 C 778.899,1392.85 776.899,1395.02 774.5,1397C 755.882,1410.62 737.549,1424.62 719.5,1439C 718.552,1439.48 717.552,1439.65 716.5,1439.5C 737.216,1422.46 758.549,1406.13 780.5,1390.5 Z"/></g>
<g><path style="opacity:0.831" fill="#393444" d="M 716.5,1439.5 C 716.586,1440.5 716.252,1441.33 715.5,1442C 600.738,1529.04 486.405,1616.54 372.5,1704.5C 372.167,1704.5 371.833,1704.5 371.5,1704.5C 368.871,1700.54 365.871,1696.87 362.5,1693.5C 360.967,1691.71 359.967,1689.71 359.5,1687.5C 364.287,1691.2 368.287,1695.7 371.5,1701C 372.167,1701.67 372.833,1701.67 373.5,1701C 487.485,1613.34 601.818,1526.18 716.5,1439.5 Z"/></g>
<g><path style="opacity:0.804" fill="#3a3643" d="M 262.5,1560.5 C 264.048,1560.82 264.715,1561.82 264.5,1563.5C 262.952,1563.18 262.285,1562.18 262.5,1560.5 Z"/></g>
<g><path style="opacity:0.858" fill="#393444" d="M 264.5,1563.5 C 267.41,1565.24 269.91,1567.57 272,1570.5C 300.585,1608.76 329.585,1646.76 359,1684.5C 359.483,1685.45 359.649,1686.45 359.5,1687.5C 327.025,1646.7 295.358,1605.37 264.5,1563.5 Z"/></g>
</svg>
