<?xml version="1.0" encoding="UTF-8"?>
<!DOCTYPE svg PUBLIC "-//W3C//DTD SVG 1.1//EN" "http://www.w3.org/Graphics/SVG/1.1/DTD/svg11.dtd">
<svg xmlns="http://www.w3.org/2000/svg" version="1.1" width="374px" height="753px" style="shape-rendering:geometricPrecision; text-rendering:geometricPrecision; image-rendering:optimizeQuality; fill-rule:evenodd; clip-rule:evenodd" xmlns:xlink="http://www.w3.org/1999/xlink">
<g><path style="opacity:1" fill="#f8dabc" d="M -0.5,-0.5 C 43.1667,-0.5 86.8333,-0.5 130.5,-0.5C 145.693,20.5642 161.359,41.2308 177.5,61.5C 192.815,82.1427 208.482,102.476 224.5,122.5C 241.351,145.535 258.684,168.202 276.5,190.5C 292.784,212.876 309.451,235.042 326.5,257C 294.642,281.692 262.642,306.192 230.5,330.5C 212.124,307.457 194.124,284.124 176.5,260.5C 167.518,248.19 158.185,236.19 148.5,224.5C 130.852,200.857 112.852,177.524 94.5,154.5C 80.9258,135.258 66.5924,116.591 51.5,98.5C 34.649,75.4647 17.3156,52.798 -0.5,30.5C -0.5,20.1667 -0.5,9.83333 -0.5,-0.5 Z"/></g>
<g><path style="opacity:1" fill="#f8dabc" d="M -0.5,34.5 C 17.5,57.5 35.5,80.5 53.5,103.5C 66.7751,122.382 80.7751,140.715 95.5,158.5C 115.407,186.075 136.074,213.075 157.5,239.5C 157.738,241.404 158.738,242.738 160.5,243.5C 164.109,249.715 168.442,255.382 173.5,260.5C 177.109,266.715 181.442,272.382 186.5,277.5C 190.109,283.715 194.442,289.382 199.5,294.5C 203.109,300.715 207.442,306.382 212.5,311.5C 217.073,319.074 222.406,326.074 228.5,332.5C 247.683,358.867 267.35,384.867 287.5,410.5C 314.749,446.65 342.249,482.65 370,518.5C 370.163,520.387 369.329,521.887 367.5,523C 336.667,546.5 305.833,570 275,593.5C 248.921,560.267 223.087,526.933 197.5,493.5C 179.833,470.167 162.167,446.833 144.5,423.5C 114.064,383.614 83.3973,343.947 52.5,304.5C 49.9255,299.591 46.5922,295.258 42.5,291.5C 42.2624,289.596 41.2624,288.262 39.5,287.5C 36.9255,282.591 33.5922,278.258 29.5,274.5C 29.2624,272.596 28.2624,271.262 26.5,270.5C 23.9255,265.591 20.5922,261.258 16.5,257.5C 12.8914,251.285 8.55809,245.618 3.5,240.5C 2.55139,238.223 1.21806,236.223 -0.5,234.5C -0.5,167.833 -0.5,101.167 -0.5,34.5 Z"/></g>
<g><path style="opacity:0.869" fill="#6f5348" d="M 130.5,-0.5 C 131.167,-0.5 131.833,-0.5 132.5,-0.5C 148.167,20.1667 163.833,40.8333 179.5,61.5C 178.833,61.5 178.167,61.5 177.5,61.5C 161.359,41.2308 145.693,20.5642 130.5,-0.5 Z"/></g>
<g><path style="opacity:0.978" fill="#4e4146" d="M -0.5,30.5 C 17.3156,52.798 34.649,75.4647 51.5,98.5C 52.1667,100.167 52.8333,101.833 53.5,103.5C 35.5,80.5 17.5,57.5 -0.5,34.5C -0.5,33.1667 -0.5,31.8333 -0.5,30.5 Z"/></g>
<g><path style="opacity:0.802" fill="#9e6d4f" d="M 177.5,61.5 C 178.167,61.5 178.833,61.5 179.5,61.5C 195.397,81.6142 211.064,101.948 226.5,122.5C 225.833,122.5 225.167,122.5 224.5,122.5C 208.482,102.476 192.815,82.1427 177.5,61.5 Z"/></g>
<g><path style="opacity:0.983" fill="#75564a" d="M 51.5,98.5 C 66.5924,116.591 80.9258,135.258 94.5,154.5C 94.8333,155.833 95.1667,157.167 95.5,158.5C 80.7751,140.715 66.7751,122.382 53.5,103.5C 52.8333,101.833 52.1667,100.167 51.5,98.5 Z"/></g>
<g><path style="opacity:0.817" fill="#ce8852" d="M 224.5,122.5 C 225.167,122.5 225.833,122.5 226.5,122.5C 243.743,144.654 260.743,166.987 277.5,189.5C 277.5,190.167 277.167,190.5 276.5,190.5C 258.684,168.202 241.351,145.535 224.5,122.5 Z"/></g>
<g><path style="opacity:0.987" fill="#9b6b4e" d="M 94.5,154.5 C 112.852,177.524 130.852,200.857 148.5,224.5C 148.351,225.552 148.517,226.552 149,227.5C 152.467,231.12 155.3,235.12 157.5,239.5C 136.074,213.075 115.407,186.075 95.5,158.5C 95.1667,157.167 94.8333,155.833 94.5,154.5 Z"/></g>
<g><path style="opacity:1" fill="#f8dabc" d="M -0.5,240.5 C 1.12879,241.625 2.62879,242.959 4,244.5C 18.803,264.603 33.9697,284.437 49.5,304C 33.2425,317.432 16.5758,330.265 -0.5,342.5C -0.5,308.5 -0.5,274.5 -0.5,240.5 Z"/></g>
<g><path style="opacity:1" fill="#74534e" d="M 3.5,240.5 C 8.55809,245.618 12.8914,251.285 16.5,257.5C 11.4419,252.382 7.10858,246.715 3.5,240.5 Z"/></g>
<g><path style="opacity:0.999" fill="#97694d" d="M 160.5,243.5 C 165.558,248.618 169.891,254.285 173.5,260.5C 168.442,255.382 164.109,249.715 160.5,243.5 Z"/></g>
<g><path style="opacity:0.988" fill="#c28151" d="M 148.5,224.5 C 158.185,236.19 167.518,248.19 176.5,260.5C 175.475,260.897 175.308,261.563 176,262.5C 179.745,267.398 183.245,272.398 186.5,277.5C 181.442,272.382 177.109,266.715 173.5,260.5C 169.891,254.285 165.558,248.618 160.5,243.5C 158.738,242.738 157.738,241.404 157.5,239.5C 155.3,235.12 152.467,231.12 149,227.5C 148.517,226.552 148.351,225.552 148.5,224.5 Z"/></g>
<g><path style="opacity:0.993" fill="#7a574e" d="M 16.5,257.5 C 20.5922,261.258 23.9255,265.591 26.5,270.5C 22.4078,266.742 19.0745,262.409 16.5,257.5 Z"/></g>
<g><path style="opacity:0.987" fill="#bb5680" d="M -0.5,234.5 C 1.21806,236.223 2.55139,238.223 3.5,240.5C 7.10858,246.715 11.4419,252.382 16.5,257.5C 19.0745,262.409 22.4078,266.742 26.5,270.5C 28.2624,271.262 29.2624,272.596 29.5,274.5C 32.0745,279.409 35.4078,283.742 39.5,287.5C 41.2624,288.262 42.2624,289.596 42.5,291.5C 45.0745,296.409 48.4078,300.742 52.5,304.5C 52.5,304.833 52.5,305.167 52.5,305.5C 51.0783,305.709 49.745,306.209 48.5,307C 32.4968,319.994 16.1635,332.494 -0.5,344.5C -0.5,343.833 -0.5,343.167 -0.5,342.5C 16.5758,330.265 33.2425,317.432 49.5,304C 33.9697,284.437 18.803,264.603 4,244.5C 2.62879,242.959 1.12879,241.625 -0.5,240.5C -0.5,238.5 -0.5,236.5 -0.5,234.5 Z"/></g>
<g><path style="opacity:1" fill="#825b4e" d="M 29.5,274.5 C 33.5922,278.258 36.9255,282.591 39.5,287.5C 35.4078,283.742 32.0745,279.409 29.5,274.5 Z"/></g>
<g><path style="opacity:1" fill="#a8734f" d="M 186.5,277.5 C 191.558,282.618 195.891,288.285 199.5,294.5C 194.442,289.382 190.109,283.715 186.5,277.5 Z"/></g>
<g><path style="opacity:0.888" fill="#fba056" d="M 277.5,189.5 C 295.161,211.839 312.495,234.506 329.5,257.5C 296.529,282.475 263.862,307.808 231.5,333.5C 230.391,333.443 229.391,333.11 228.5,332.5C 223.927,324.926 218.594,317.926 212.5,311.5C 208.891,305.285 204.558,299.618 199.5,294.5C 195.891,288.285 191.558,282.618 186.5,277.5C 183.245,272.398 179.745,267.398 176,262.5C 175.308,261.563 175.475,260.897 176.5,260.5C 194.124,284.124 212.124,307.457 230.5,330.5C 262.642,306.192 294.642,281.692 326.5,257C 309.451,235.042 292.784,212.876 276.5,190.5C 277.167,190.5 277.5,190.167 277.5,189.5 Z"/></g>
<g><path style="opacity:0.996" fill="#895f4f" d="M 42.5,291.5 C 46.5922,295.258 49.9255,299.591 52.5,304.5C 48.4078,300.742 45.0745,296.409 42.5,291.5 Z"/></g>
<g><path style="opacity:0.998" fill="#af774f" d="M 199.5,294.5 C 204.558,299.618 208.891,305.285 212.5,311.5C 207.442,306.382 203.109,300.715 199.5,294.5 Z"/></g>
<g><path style="opacity:1" fill="#f8dabc" d="M 98.5,424.5 C 96.9731,424.427 95.9731,425.094 95.5,426.5C 90.4313,429.695 85.7646,433.362 81.5,437.5C 79.9731,437.427 78.9731,438.094 78.5,439.5C 73.4313,442.695 68.7646,446.362 64.5,450.5C 42.5685,466.425 20.9019,482.758 -0.5,499.5C -0.5,448.5 -0.5,397.5 -0.5,346.5C 16.7265,333.63 33.8932,320.63 51,307.5C 75.9838,338.805 100.484,370.472 124.5,402.5C 116.107,410.232 107.441,417.565 98.5,424.5 Z"/></g>
<g><path style="opacity:1" fill="#b87b50" d="M 212.5,311.5 C 218.594,317.926 223.927,324.926 228.5,332.5C 222.406,326.074 217.073,319.074 212.5,311.5 Z"/></g>
<g><path style="opacity:0.999" fill="#a37055" d="M 52.5,304.5 C 83.3973,343.947 114.064,383.614 144.5,423.5C 143.957,423.56 143.624,423.893 143.5,424.5C 144.63,425.622 145.297,426.956 145.5,428.5C 143.457,427.421 142.124,425.754 141.5,423.5C 141.262,421.596 140.262,420.262 138.5,419.5C 138.262,417.596 137.262,416.262 135.5,415.5C 135.262,413.596 134.262,412.262 132.5,411.5C 130.457,410.421 129.124,408.754 128.5,406.5C 128.672,405.508 128.338,404.842 127.5,404.5C 102.743,371.321 77.7429,338.321 52.5,305.5C 52.5,305.167 52.5,304.833 52.5,304.5 Z"/></g>
<g><path style="opacity:1" fill="#9974ed" d="M 52.5,305.5 C 77.7429,338.321 102.743,371.321 127.5,404.5C 125.596,404.738 124.262,405.738 123.5,407.5C 121.596,407.738 120.262,408.738 119.5,410.5C 117.596,410.738 116.262,411.738 115.5,413.5C 115.5,414.167 115.167,414.5 114.5,414.5C 112.596,414.738 111.262,415.738 110.5,417.5C 108.596,417.738 107.262,418.738 106.5,420.5C 104.596,420.738 103.262,421.738 102.5,423.5C 100.983,423.511 99.8159,424.177 99,425.5C 98.6012,425.272 98.4346,424.938 98.5,424.5C 107.441,417.565 116.107,410.232 124.5,402.5C 100.484,370.472 75.9838,338.805 51,307.5C 33.8932,320.63 16.7265,333.63 -0.5,346.5C -0.5,345.833 -0.5,345.167 -0.5,344.5C 16.1635,332.494 32.4968,319.994 48.5,307C 49.745,306.209 51.0783,305.709 52.5,305.5 Z"/></g>
<g><path style="opacity:0.827" fill="#cf8953" d="M 228.5,332.5 C 229.391,333.11 230.391,333.443 231.5,333.5C 250.257,358.68 269.257,383.68 288.5,408.5C 287.662,408.842 287.328,409.508 287.5,410.5C 267.35,384.867 247.683,358.867 228.5,332.5 Z"/></g>
<g><path style="opacity:0.996" fill="#3f394a" d="M 127.5,404.5 C 128.338,404.842 128.672,405.508 128.5,406.5C 127.883,406.389 127.383,406.056 127,405.5C 126.184,406.823 125.017,407.489 123.5,407.5C 124.262,405.738 125.596,404.738 127.5,404.5 Z"/></g>
<g><path style="opacity:1" fill="#f8dabc" d="M 128.5,406.5 C 129.124,408.754 130.457,410.421 132.5,411.5C 132.738,413.404 133.738,414.738 135.5,415.5C 135.738,417.404 136.738,418.738 138.5,419.5C 138.738,421.404 139.738,422.738 141.5,423.5C 142.124,425.754 143.457,427.421 145.5,428.5C 145.738,430.404 146.738,431.738 148.5,432.5C 148.738,434.404 149.738,435.738 151.5,436.5C 151.738,438.404 152.738,439.738 154.5,440.5C 155.08,442.749 156.413,444.415 158.5,445.5C 158.738,447.404 159.738,448.738 161.5,449.5C 161.738,451.404 162.738,452.738 164.5,453.5C 164.738,455.404 165.738,456.738 167.5,457.5C 167.738,459.404 168.738,460.738 170.5,461.5C 170.5,462.167 170.833,462.5 171.5,462.5C 171.738,464.404 172.738,465.738 174.5,466.5C 174.738,468.404 175.738,469.738 177.5,470.5C 177.738,472.404 178.738,473.738 180.5,474.5C 180.738,476.404 181.738,477.738 183.5,478.5C 183.5,479.167 183.833,479.5 184.5,479.5C 184.738,481.404 185.738,482.738 187.5,483.5C 187.738,485.404 188.738,486.738 190.5,487.5C 190.738,489.404 191.738,490.738 193.5,491.5C 193.738,493.404 194.738,494.738 196.5,495.5C 196.5,496.167 196.833,496.5 197.5,496.5C 197.738,498.404 198.738,499.738 200.5,500.5C 200.738,502.404 201.738,503.738 203.5,504.5C 203.738,506.404 204.738,507.738 206.5,508.5C 206.738,510.404 207.738,511.738 209.5,512.5C 209.5,513.167 209.833,513.5 210.5,513.5C 210.738,515.404 211.738,516.738 213.5,517.5C 213.738,519.404 214.738,520.738 216.5,521.5C 216.738,523.404 217.738,524.738 219.5,525.5C 219.738,527.404 220.738,528.738 222.5,529.5C 222.489,531.017 221.823,532.184 220.5,533C 146.803,589.176 73.1367,645.342 -0.5,701.5C -0.5,635.167 -0.5,568.833 -0.5,502.5C 8.47585,496.185 17.1425,489.519 25.5,482.5C 27.7488,481.92 29.4154,480.587 30.5,478.5C 43.7409,469.593 56.4076,459.927 68.5,449.5C 70.4044,449.262 71.7377,448.262 72.5,446.5C 74.4044,446.262 75.7377,445.262 76.5,443.5C 79.7915,441.542 82.7915,439.209 85.5,436.5C 87.4044,436.262 88.7377,435.262 89.5,433.5C 91.4044,433.262 92.7377,432.262 93.5,430.5C 96.7915,428.542 99.7915,426.209 102.5,423.5C 104.404,423.262 105.738,422.262 106.5,420.5C 108.404,420.262 109.738,419.262 110.5,417.5C 112.404,417.262 113.738,416.262 114.5,414.5C 115.167,414.5 115.5,414.167 115.5,413.5C 117.404,413.262 118.738,412.262 119.5,410.5C 121.404,410.262 122.738,409.262 123.5,407.5C 125.017,407.489 126.184,406.823 127,405.5C 127.383,406.056 127.883,406.389 128.5,406.5 Z"/></g>
<g><path style="opacity:0.99" fill="#3e394e" d="M 123.5,407.5 C 122.738,409.262 121.404,410.262 119.5,410.5C 120.262,408.738 121.596,407.738 123.5,407.5 Z"/></g>
<g><path style="opacity:1" fill="#40394f" d="M 119.5,410.5 C 118.738,412.262 117.404,413.262 115.5,413.5C 116.262,411.738 117.596,410.738 119.5,410.5 Z"/></g>
<g><path style="opacity:0.984" fill="#453b46" d="M 132.5,411.5 C 134.262,412.262 135.262,413.596 135.5,415.5C 133.738,414.738 132.738,413.404 132.5,411.5 Z"/></g>
<g><path style="opacity:1" fill="#3c3749" d="M 114.5,414.5 C 113.738,416.262 112.404,417.262 110.5,417.5C 111.262,415.738 112.596,414.738 114.5,414.5 Z"/></g>
<g><path style="opacity:0.992" fill="#423a45" d="M 135.5,415.5 C 137.262,416.262 138.262,417.596 138.5,419.5C 136.738,418.738 135.738,417.404 135.5,415.5 Z"/></g>
<g><path style="opacity:0.996" fill="#3d384b" d="M 110.5,417.5 C 109.738,419.262 108.404,420.262 106.5,420.5C 107.262,418.738 108.596,417.738 110.5,417.5 Z"/></g>
<g><path style="opacity:0.996" fill="#403945" d="M 138.5,419.5 C 140.262,420.262 141.262,421.596 141.5,423.5C 139.738,422.738 138.738,421.404 138.5,419.5 Z"/></g>
<g><path style="opacity:0.99" fill="#3e384c" d="M 106.5,420.5 C 105.738,422.262 104.404,423.262 102.5,423.5C 103.262,421.738 104.596,420.738 106.5,420.5 Z"/></g>
<g><path style="opacity:1" fill="#5d4c83" d="M 102.5,423.5 C 99.7915,426.209 96.7915,428.542 93.5,430.5C 94.2899,429.206 95.2899,428.039 96.5,427C 96.2716,426.601 95.9382,426.435 95.5,426.5C 95.9731,425.094 96.9731,424.427 98.5,424.5C 98.4346,424.938 98.6012,425.272 99,425.5C 99.8159,424.177 100.983,423.511 102.5,423.5 Z"/></g>
<g><path style="opacity:1" fill="#8467ce" d="M 95.5,426.5 C 95.9382,426.435 96.2716,426.601 96.5,427C 95.2899,428.039 94.2899,429.206 93.5,430.5C 91.5956,430.738 90.2623,431.738 89.5,433.5C 87.5956,433.738 86.2623,434.738 85.5,436.5C 83.9826,436.511 82.8159,437.177 82,438.5C 81.6012,438.272 81.4346,437.938 81.5,437.5C 85.7646,433.362 90.4313,429.695 95.5,426.5 Z"/></g>
<g><path style="opacity:0.984" fill="#463c46" d="M 145.5,428.5 C 147.262,429.262 148.262,430.596 148.5,432.5C 146.738,431.738 145.738,430.404 145.5,428.5 Z"/></g>
<g><path style="opacity:0.996" fill="#3d384a" d="M 93.5,430.5 C 92.7377,432.262 91.4044,433.262 89.5,433.5C 90.2623,431.738 91.5956,430.738 93.5,430.5 Z"/></g>
<g><path style="opacity:0.99" fill="#433a45" d="M 148.5,432.5 C 150.262,433.262 151.262,434.596 151.5,436.5C 149.738,435.738 148.738,434.404 148.5,432.5 Z"/></g>
<g><path style="opacity:0.99" fill="#3e384b" d="M 89.5,433.5 C 88.7377,435.262 87.4044,436.262 85.5,436.5C 86.2623,434.738 87.5956,433.738 89.5,433.5 Z"/></g>
<g><path style="opacity:0.996" fill="#413945" d="M 151.5,436.5 C 153.262,437.262 154.262,438.596 154.5,440.5C 152.738,439.738 151.738,438.404 151.5,436.5 Z"/></g>
<g><path style="opacity:1" fill="#594a7d" d="M 85.5,436.5 C 82.7915,439.209 79.7915,441.542 76.5,443.5C 77.2899,442.206 78.2899,441.039 79.5,440C 79.2716,439.601 78.9382,439.435 78.5,439.5C 78.9731,438.094 79.9731,437.427 81.5,437.5C 81.4346,437.938 81.6012,438.272 82,438.5C 82.8159,437.177 83.9826,436.511 85.5,436.5 Z"/></g>
<g><path style="opacity:0.998" fill="#463c46" d="M 154.5,440.5 C 156.587,441.585 157.92,443.251 158.5,445.5C 156.413,444.415 155.08,442.749 154.5,440.5 Z"/></g>
<g><path style="opacity:0.997" fill="#7c62c0" d="M 78.5,439.5 C 78.9382,439.435 79.2716,439.601 79.5,440C 78.2899,441.039 77.2899,442.206 76.5,443.5C 74.5956,443.738 73.2623,444.738 72.5,446.5C 70.5956,446.738 69.2623,447.738 68.5,449.5C 67.1667,449.833 65.8333,450.167 64.5,450.5C 68.7646,446.362 73.4313,442.695 78.5,439.5 Z"/></g>
<g><path style="opacity:0.996" fill="#3c3749" d="M 76.5,443.5 C 75.7377,445.262 74.4044,446.262 72.5,446.5C 73.2623,444.738 74.5956,443.738 76.5,443.5 Z"/></g>
<g><path style="opacity:0.984" fill="#463c46" d="M 158.5,445.5 C 160.262,446.262 161.262,447.596 161.5,449.5C 159.738,448.738 158.738,447.404 158.5,445.5 Z"/></g>
<g><path style="opacity:0.99" fill="#3d374b" d="M 72.5,446.5 C 71.7377,448.262 70.4044,449.262 68.5,449.5C 69.2623,447.738 70.5956,446.738 72.5,446.5 Z"/></g>
<g><path style="opacity:0.99" fill="#443b45" d="M 161.5,449.5 C 163.262,450.262 164.262,451.596 164.5,453.5C 162.738,452.738 161.738,451.404 161.5,449.5 Z"/></g>
<g><path style="opacity:0.996" fill="#413a45" d="M 164.5,453.5 C 166.262,454.262 167.262,455.596 167.5,457.5C 165.738,456.738 164.738,455.404 164.5,453.5 Z"/></g>
<g><path style="opacity:0.998" fill="#403945" d="M 167.5,457.5 C 169.262,458.262 170.262,459.596 170.5,461.5C 168.738,460.738 167.738,459.404 167.5,457.5 Z"/></g>
<g><path style="opacity:1" fill="#473d46" d="M 171.5,462.5 C 173.262,463.262 174.262,464.596 174.5,466.5C 172.738,465.738 171.738,464.404 171.5,462.5 Z"/></g>
<g><path style="opacity:0.99" fill="#443b46" d="M 174.5,466.5 C 176.262,467.262 177.262,468.596 177.5,470.5C 175.738,469.738 174.738,468.404 174.5,466.5 Z"/></g>
<g><path style="opacity:0.996" fill="#423a45" d="M 177.5,470.5 C 179.262,471.262 180.262,472.596 180.5,474.5C 178.738,473.738 177.738,472.404 177.5,470.5 Z"/></g>
<g><path style="opacity:0.985" fill="#5c4c82" d="M 68.5,449.5 C 56.4076,459.927 43.7409,469.593 30.5,478.5C 28.2512,479.08 26.5846,480.413 25.5,482.5C 17.1425,489.519 8.47585,496.185 -0.5,502.5C -0.5,501.5 -0.5,500.5 -0.5,499.5C 20.9019,482.758 42.5685,466.425 64.5,450.5C 65.8333,450.167 67.1667,449.833 68.5,449.5 Z"/></g>
<g><path style="opacity:0.998" fill="#403945" d="M 180.5,474.5 C 182.262,475.262 183.262,476.596 183.5,478.5C 181.738,477.738 180.738,476.404 180.5,474.5 Z"/></g>
<g><path style="opacity:0.989" fill="#3d384a" d="M 30.5,478.5 C 29.4154,480.587 27.7488,481.92 25.5,482.5C 26.5846,480.413 28.2512,479.08 30.5,478.5 Z"/></g>
<g><path style="opacity:1" fill="#483d46" d="M 184.5,479.5 C 186.262,480.262 187.262,481.596 187.5,483.5C 185.738,482.738 184.738,481.404 184.5,479.5 Z"/></g>
<g><path style="opacity:0.99" fill="#453c46" d="M 187.5,483.5 C 189.262,484.262 190.262,485.596 190.5,487.5C 188.738,486.738 187.738,485.404 187.5,483.5 Z"/></g>
<g><path style="opacity:0.996" fill="#433a45" d="M 190.5,487.5 C 192.262,488.262 193.262,489.596 193.5,491.5C 191.738,490.738 190.738,489.404 190.5,487.5 Z"/></g>
<g><path style="opacity:0.981" fill="#ca8552" d="M 144.5,423.5 C 162.167,446.833 179.833,470.167 197.5,493.5C 197.557,494.609 197.89,495.609 198.5,496.5C 198.167,496.5 197.833,496.5 197.5,496.5C 196.833,496.5 196.5,496.167 196.5,495.5C 196.262,493.596 195.262,492.262 193.5,491.5C 193.262,489.596 192.262,488.262 190.5,487.5C 190.262,485.596 189.262,484.262 187.5,483.5C 187.262,481.596 186.262,480.262 184.5,479.5C 183.833,479.5 183.5,479.167 183.5,478.5C 183.262,476.596 182.262,475.262 180.5,474.5C 180.262,472.596 179.262,471.262 177.5,470.5C 177.262,468.596 176.262,467.262 174.5,466.5C 174.262,464.596 173.262,463.262 171.5,462.5C 170.833,462.5 170.5,462.167 170.5,461.5C 170.262,459.596 169.262,458.262 167.5,457.5C 167.262,455.596 166.262,454.262 164.5,453.5C 164.262,451.596 163.262,450.262 161.5,449.5C 161.262,447.596 160.262,446.262 158.5,445.5C 157.92,443.251 156.587,441.585 154.5,440.5C 154.262,438.596 153.262,437.262 151.5,436.5C 151.262,434.596 150.262,433.262 148.5,432.5C 148.262,430.596 147.262,429.262 145.5,428.5C 145.297,426.956 144.63,425.622 143.5,424.5C 143.624,423.893 143.957,423.56 144.5,423.5 Z"/></g>
<g><path style="opacity:0.998" fill="#403945" d="M 193.5,491.5 C 195.262,492.262 196.262,493.596 196.5,495.5C 194.738,494.738 193.738,493.404 193.5,491.5 Z"/></g>
<g><path style="opacity:1" fill="#493e46" d="M 197.5,496.5 C 197.833,496.5 198.167,496.5 198.5,496.5C 199.6,497.605 200.267,498.938 200.5,500.5C 198.738,499.738 197.738,498.404 197.5,496.5 Z"/></g>
<g><path style="opacity:1" fill="#453c46" d="M 200.5,500.5 C 202.262,501.262 203.262,502.596 203.5,504.5C 201.738,503.738 200.738,502.404 200.5,500.5 Z"/></g>
<g><path style="opacity:0.996" fill="#433b46" d="M 203.5,504.5 C 205.262,505.262 206.262,506.596 206.5,508.5C 204.738,507.738 203.738,506.404 203.5,504.5 Z"/></g>
<g><path style="opacity:0.998" fill="#413945" d="M 206.5,508.5 C 208.262,509.262 209.262,510.596 209.5,512.5C 207.738,511.738 206.738,510.404 206.5,508.5 Z"/></g>
<g><path style="opacity:1" fill="#4a3e46" d="M 210.5,513.5 C 212.262,514.262 213.262,515.596 213.5,517.5C 211.738,516.738 210.738,515.404 210.5,513.5 Z"/></g>
<g><path style="opacity:0.99" fill="#473d46" d="M 213.5,517.5 C 215.262,518.262 216.262,519.596 216.5,521.5C 214.738,520.738 213.738,519.404 213.5,517.5 Z"/></g>
<g><path style="opacity:0.994" fill="#443b45" d="M 216.5,521.5 C 218.262,522.262 219.262,523.596 219.5,525.5C 217.738,524.738 216.738,523.404 216.5,521.5 Z"/></g>
<g><path style="opacity:0.998" fill="#413a45" d="M 219.5,525.5 C 221.262,526.262 222.262,527.596 222.5,529.5C 220.738,528.738 219.738,527.404 219.5,525.5 Z"/></g>
<g><path style="opacity:0.87" fill="#faa056" d="M 288.5,408.5 C 316.602,445.719 344.936,482.719 373.5,519.5C 373.5,520.167 373.5,520.833 373.5,521.5C 340.35,546.248 307.35,571.248 274.5,596.5C 257.825,575.136 241.158,553.803 224.5,532.5C 224.573,530.973 223.906,529.973 222.5,529.5C 222.262,527.596 221.262,526.262 219.5,525.5C 219.262,523.596 218.262,522.262 216.5,521.5C 216.262,519.596 215.262,518.262 213.5,517.5C 213.262,515.596 212.262,514.262 210.5,513.5C 209.833,513.5 209.5,513.167 209.5,512.5C 209.262,510.596 208.262,509.262 206.5,508.5C 206.262,506.596 205.262,505.262 203.5,504.5C 203.262,502.596 202.262,501.262 200.5,500.5C 200.267,498.938 199.6,497.605 198.5,496.5C 197.89,495.609 197.557,494.609 197.5,493.5C 223.087,526.933 248.921,560.267 275,593.5C 305.833,570 336.667,546.5 367.5,523C 369.329,521.887 370.163,520.387 370,518.5C 342.249,482.65 314.749,446.65 287.5,410.5C 287.328,409.508 287.662,408.842 288.5,408.5 Z"/></g>
<g><path style="opacity:0.835" fill="#393445" d="M 222.5,529.5 C 223.906,529.973 224.573,530.973 224.5,532.5C 149.32,589.257 74.3203,646.257 -0.5,703.5C -0.5,702.833 -0.5,702.167 -0.5,701.5C 73.1367,645.342 146.803,589.176 220.5,533C 221.823,532.184 222.489,531.017 222.5,529.5 Z"/></g>
</svg>
